<mxfile host="app.diagrams.net" modified="2022-08-07T02:55:11.014Z" agent="5.0 (Windows NT 10.0; Win64; x64) AppleWebKit/537.36 (KHTML, like Gecko) Chrome/103.0.0.0 Safari/537.36" etag="0q8iduwavRtvb3mZsI_x" version="20.0.1" type="github" pages="8">
  <diagram id="90qH2F5H2pJROzGr9Ds2" name="背景">
    <mxGraphModel dx="1422" dy="762" grid="1" gridSize="10" guides="1" tooltips="1" connect="1" arrows="1" fold="1" page="1" pageScale="1" pageWidth="827" pageHeight="1169" math="0" shadow="0">
      <root>
        <mxCell id="lDA8xiQkqtGN8QM2m9IJ-0" />
        <mxCell id="lDA8xiQkqtGN8QM2m9IJ-1" parent="lDA8xiQkqtGN8QM2m9IJ-0" />
        <mxCell id="UrrJaD0e1Q0hKn4HhGNA-0" value="" style="swimlane;startSize=0;" vertex="1" parent="lDA8xiQkqtGN8QM2m9IJ-1">
          <mxGeometry x="30" y="200" width="1300" height="390" as="geometry" />
        </mxCell>
        <mxCell id="UrrJaD0e1Q0hKn4HhGNA-1" value="业务组 A" style="swimlane;" vertex="1" parent="UrrJaD0e1Q0hKn4HhGNA-0">
          <mxGeometry x="90" y="80" width="330" height="250" as="geometry" />
        </mxCell>
        <mxCell id="UrrJaD0e1Q0hKn4HhGNA-2" value="业务页面..." style="rounded=0;whiteSpace=wrap;html=1;fillColor=#dae8fc;strokeColor=#6c8ebf;" vertex="1" parent="UrrJaD0e1Q0hKn4HhGNA-1">
          <mxGeometry x="25" y="65" width="120" height="60" as="geometry" />
        </mxCell>
        <mxCell id="UrrJaD0e1Q0hKn4HhGNA-3" value="组件..." style="rounded=0;whiteSpace=wrap;html=1;" vertex="1" parent="UrrJaD0e1Q0hKn4HhGNA-1">
          <mxGeometry x="25" y="155" width="120" height="60" as="geometry" />
        </mxCell>
        <mxCell id="UrrJaD0e1Q0hKn4HhGNA-5" value="状态管理" style="rounded=0;whiteSpace=wrap;html=1;" vertex="1" parent="UrrJaD0e1Q0hKn4HhGNA-1">
          <mxGeometry x="185" y="65" width="120" height="60" as="geometry" />
        </mxCell>
        <mxCell id="UrrJaD0e1Q0hKn4HhGNA-7" value="语言包" style="rounded=0;whiteSpace=wrap;html=1;" vertex="1" parent="UrrJaD0e1Q0hKn4HhGNA-1">
          <mxGeometry x="185" y="155" width="120" height="60" as="geometry" />
        </mxCell>
        <mxCell id="hHtjLhMbP6pJHHe6cRWC-0" value="业务组 B" style="swimlane;" vertex="1" parent="UrrJaD0e1Q0hKn4HhGNA-0">
          <mxGeometry x="490" y="80" width="330" height="250" as="geometry" />
        </mxCell>
        <mxCell id="hHtjLhMbP6pJHHe6cRWC-1" value="业务页面..." style="rounded=0;whiteSpace=wrap;html=1;fillColor=#dae8fc;strokeColor=#6c8ebf;" vertex="1" parent="hHtjLhMbP6pJHHe6cRWC-0">
          <mxGeometry x="25" y="65" width="120" height="60" as="geometry" />
        </mxCell>
        <mxCell id="hHtjLhMbP6pJHHe6cRWC-2" value="组件..." style="rounded=0;whiteSpace=wrap;html=1;" vertex="1" parent="hHtjLhMbP6pJHHe6cRWC-0">
          <mxGeometry x="25" y="155" width="120" height="60" as="geometry" />
        </mxCell>
        <mxCell id="hHtjLhMbP6pJHHe6cRWC-3" value="状态管理" style="rounded=0;whiteSpace=wrap;html=1;" vertex="1" parent="hHtjLhMbP6pJHHe6cRWC-0">
          <mxGeometry x="185" y="65" width="120" height="60" as="geometry" />
        </mxCell>
        <mxCell id="hHtjLhMbP6pJHHe6cRWC-4" value="语言包" style="rounded=0;whiteSpace=wrap;html=1;" vertex="1" parent="hHtjLhMbP6pJHHe6cRWC-0">
          <mxGeometry x="185" y="155" width="120" height="60" as="geometry" />
        </mxCell>
        <mxCell id="hHtjLhMbP6pJHHe6cRWC-5" value="其余业务组若干" style="swimlane;startSize=23;" vertex="1" parent="UrrJaD0e1Q0hKn4HhGNA-0">
          <mxGeometry x="900" y="80" width="330" height="250" as="geometry" />
        </mxCell>
        <mxCell id="hHtjLhMbP6pJHHe6cRWC-6" value="业务页面..." style="rounded=0;whiteSpace=wrap;html=1;fillColor=#dae8fc;strokeColor=#6c8ebf;" vertex="1" parent="hHtjLhMbP6pJHHe6cRWC-5">
          <mxGeometry x="25" y="65" width="120" height="60" as="geometry" />
        </mxCell>
        <mxCell id="hHtjLhMbP6pJHHe6cRWC-7" value="组件..." style="rounded=0;whiteSpace=wrap;html=1;" vertex="1" parent="hHtjLhMbP6pJHHe6cRWC-5">
          <mxGeometry x="25" y="155" width="120" height="60" as="geometry" />
        </mxCell>
        <mxCell id="hHtjLhMbP6pJHHe6cRWC-8" value="状态管理" style="rounded=0;whiteSpace=wrap;html=1;" vertex="1" parent="hHtjLhMbP6pJHHe6cRWC-5">
          <mxGeometry x="185" y="65" width="120" height="60" as="geometry" />
        </mxCell>
        <mxCell id="hHtjLhMbP6pJHHe6cRWC-9" value="语言包" style="rounded=0;whiteSpace=wrap;html=1;" vertex="1" parent="hHtjLhMbP6pJHHe6cRWC-5">
          <mxGeometry x="185" y="155" width="120" height="60" as="geometry" />
        </mxCell>
        <mxCell id="hHtjLhMbP6pJHHe6cRWC-12" value="&lt;h1&gt;业务层面划分&lt;/h1&gt;&lt;p&gt;每个小组只关心自己的业务，后端也独立的微服务，但是前端的代码却没有做到解耦，存放在一个仓库上，需要一同打包。&lt;/p&gt;" style="text;html=1;strokeColor=none;fillColor=none;spacing=5;spacingTop=-20;whiteSpace=wrap;overflow=hidden;rounded=0;" vertex="1" parent="lDA8xiQkqtGN8QM2m9IJ-1">
          <mxGeometry x="30" y="80" width="190" height="120" as="geometry" />
        </mxCell>
      </root>
    </mxGraphModel>
  </diagram>
  <diagram id="GyyvgpNQD2YScgq6EcZ8" name="架构图">
    <mxGraphModel dx="1422" dy="762" grid="1" gridSize="10" guides="1" tooltips="1" connect="1" arrows="1" fold="1" page="1" pageScale="1" pageWidth="827" pageHeight="1169" math="0" shadow="0">
      <root>
        <mxCell id="0" />
        <mxCell id="1" parent="0" />
      </root>
    </mxGraphModel>
  </diagram>
  <diagram id="_1T6uQO5MybuX3rCfD8d" name="子应用设计图">
    <mxGraphModel dx="1422" dy="762" grid="1" gridSize="10" guides="1" tooltips="1" connect="1" arrows="1" fold="1" page="1" pageScale="1" pageWidth="827" pageHeight="1169" math="0" shadow="0">
      <root>
        <mxCell id="m2TqppDUXm8By1KXCwRP-0" />
        <mxCell id="m2TqppDUXm8By1KXCwRP-1" parent="m2TqppDUXm8By1KXCwRP-0" />
      </root>
    </mxGraphModel>
  </diagram>
  <diagram id="vxdltalp2DNErvV8A27n" name="事件机制">
    <mxGraphModel dx="1422" dy="762" grid="1" gridSize="10" guides="1" tooltips="1" connect="1" arrows="1" fold="1" page="1" pageScale="1" pageWidth="827" pageHeight="1169" math="0" shadow="0">
      <root>
        <mxCell id="X8Hh9iE532YacCY2mliJ-0" />
        <mxCell id="X8Hh9iE532YacCY2mliJ-1" parent="X8Hh9iE532YacCY2mliJ-0" />
      </root>
    </mxGraphModel>
  </diagram>
  <diagram id="CX-kAmB0zcXmTXvZoOpx" name="组件图">
    <mxGraphModel dx="2249" dy="1875" grid="1" gridSize="10" guides="1" tooltips="1" connect="1" arrows="1" fold="1" page="1" pageScale="1" pageWidth="827" pageHeight="1169" math="0" shadow="0">
      <root>
        <mxCell id="P0ja4m1GKOgg7Rop0Mvm-0" />
        <mxCell id="P0ja4m1GKOgg7Rop0Mvm-1" parent="P0ja4m1GKOgg7Rop0Mvm-0" />
        <mxCell id="P0ja4m1GKOgg7Rop0Mvm-221" style="edgeStyle=orthogonalEdgeStyle;rounded=0;orthogonalLoop=1;jettySize=auto;html=1;entryX=0;entryY=0.5;entryDx=0;entryDy=0;entryPerimeter=0;endArrow=none;endFill=0;exitX=0;exitY=0.5;exitDx=0;exitDy=0;exitPerimeter=0;" parent="P0ja4m1GKOgg7Rop0Mvm-1" source="P0ja4m1GKOgg7Rop0Mvm-274" target="P0ja4m1GKOgg7Rop0Mvm-197" edge="1">
          <mxGeometry relative="1" as="geometry" />
        </mxCell>
        <mxCell id="P0ja4m1GKOgg7Rop0Mvm-24" value="«Component»&lt;br&gt;&lt;b&gt;Visualization&lt;/b&gt;" style="align=center;overflow=fill;html=1;fontFamily=Helvetica;fontSize=12;fontColor=#000000;strokeColor=#000000;fillColor=#ffffff;" parent="P0ja4m1GKOgg7Rop0Mvm-1" vertex="1">
          <mxGeometry x="473" y="-71.5" width="1000.04347826087" height="721" as="geometry" />
        </mxCell>
        <mxCell id="P0ja4m1GKOgg7Rop0Mvm-25" value="" style="shape=component;jettyWidth=8;jettyHeight=4;" parent="P0ja4m1GKOgg7Rop0Mvm-24" vertex="1">
          <mxGeometry x="1" width="20" height="20" relative="1" as="geometry">
            <mxPoint x="-27" y="7" as="offset" />
          </mxGeometry>
        </mxCell>
        <mxCell id="uTpkXc_pbzOPR-OZeIzC-3" style="edgeStyle=orthogonalEdgeStyle;rounded=0;orthogonalLoop=1;jettySize=auto;html=1;endArrow=none;endFill=0;" parent="P0ja4m1GKOgg7Rop0Mvm-24" source="P0ja4m1GKOgg7Rop0Mvm-37" target="uTpkXc_pbzOPR-OZeIzC-1" edge="1">
          <mxGeometry relative="1" as="geometry" />
        </mxCell>
        <mxCell id="P0ja4m1GKOgg7Rop0Mvm-37" value="" style="strokeColor=inherit;fillColor=inherit;gradientColor=inherit;shape=rect;points=[[0,0.5,0]];html=1;resizable=1;align=right;verticalAlign=bottom;labelPosition=left;verticalLabelPosition=top;labelBackgroundColor=none;fontSize=10;paart=1;" parent="P0ja4m1GKOgg7Rop0Mvm-24" vertex="1">
          <mxGeometry x="-8.695652173913047" y="271.50076923076927" width="20" height="20" as="geometry" />
        </mxCell>
        <mxCell id="P0ja4m1GKOgg7Rop0Mvm-185" style="edgeStyle=orthogonalEdgeStyle;rounded=0;orthogonalLoop=1;jettySize=auto;html=1;entryX=0;entryY=0.5;entryDx=0;entryDy=0;entryPerimeter=0;endArrow=none;endFill=0;exitX=1;exitY=0.5;exitDx=0;exitDy=0;" parent="P0ja4m1GKOgg7Rop0Mvm-24" source="uTpkXc_pbzOPR-OZeIzC-1" target="P0ja4m1GKOgg7Rop0Mvm-180" edge="1">
          <mxGeometry relative="1" as="geometry">
            <mxPoint x="11.304347826086996" y="301" as="sourcePoint" />
          </mxGeometry>
        </mxCell>
        <mxCell id="P0ja4m1GKOgg7Rop0Mvm-192" style="edgeStyle=orthogonalEdgeStyle;rounded=0;orthogonalLoop=1;jettySize=auto;html=1;endArrow=none;endFill=0;" parent="P0ja4m1GKOgg7Rop0Mvm-24" source="P0ja4m1GKOgg7Rop0Mvm-51" target="P0ja4m1GKOgg7Rop0Mvm-146" edge="1">
          <mxGeometry relative="1" as="geometry" />
        </mxCell>
        <mxCell id="P0ja4m1GKOgg7Rop0Mvm-51" value="«Component»&lt;br&gt;&lt;b&gt;AppEvent&lt;/b&gt;" style="html=1;" parent="P0ja4m1GKOgg7Rop0Mvm-24" vertex="1">
          <mxGeometry x="365" y="172" width="140" height="60" as="geometry" />
        </mxCell>
        <mxCell id="P0ja4m1GKOgg7Rop0Mvm-52" value="" style="shape=component;jettyWidth=8;jettyHeight=4;" parent="P0ja4m1GKOgg7Rop0Mvm-51" vertex="1">
          <mxGeometry x="1" width="20" height="20" relative="1" as="geometry">
            <mxPoint x="-26" y="5" as="offset" />
          </mxGeometry>
        </mxCell>
        <mxCell id="P0ja4m1GKOgg7Rop0Mvm-154" style="edgeStyle=orthogonalEdgeStyle;rounded=0;orthogonalLoop=1;jettySize=auto;html=1;endArrow=none;endFill=0;" parent="P0ja4m1GKOgg7Rop0Mvm-24" source="P0ja4m1GKOgg7Rop0Mvm-62" target="P0ja4m1GKOgg7Rop0Mvm-152" edge="1">
          <mxGeometry relative="1" as="geometry" />
        </mxCell>
        <mxCell id="fyW6FbxkXhklxL_48_FK-2" style="edgeStyle=orthogonalEdgeStyle;rounded=0;orthogonalLoop=1;jettySize=auto;html=1;entryX=0;entryY=0.5;entryDx=0;entryDy=0;endArrow=none;endFill=0;" parent="P0ja4m1GKOgg7Rop0Mvm-24" source="fyW6FbxkXhklxL_48_FK-3" target="P0ja4m1GKOgg7Rop0Mvm-146" edge="1">
          <mxGeometry relative="1" as="geometry" />
        </mxCell>
        <mxCell id="P0ja4m1GKOgg7Rop0Mvm-62" value="«Component»&lt;br&gt;&lt;b&gt;AppRouter&lt;/b&gt;" style="html=1;" parent="P0ja4m1GKOgg7Rop0Mvm-24" vertex="1">
          <mxGeometry x="365" y="389.99576923076916" width="140" height="60" as="geometry" />
        </mxCell>
        <mxCell id="P0ja4m1GKOgg7Rop0Mvm-63" value="" style="shape=component;jettyWidth=8;jettyHeight=4;" parent="P0ja4m1GKOgg7Rop0Mvm-62" vertex="1">
          <mxGeometry x="1" width="20" height="20" relative="1" as="geometry">
            <mxPoint x="-27" y="5.550769230769184" as="offset" />
          </mxGeometry>
        </mxCell>
        <mxCell id="P0ja4m1GKOgg7Rop0Mvm-156" style="edgeStyle=orthogonalEdgeStyle;rounded=0;orthogonalLoop=1;jettySize=auto;html=1;entryX=0;entryY=0.5;entryDx=0;entryDy=0;entryPerimeter=0;endArrow=none;endFill=0;" parent="P0ja4m1GKOgg7Rop0Mvm-24" source="P0ja4m1GKOgg7Rop0Mvm-67" target="P0ja4m1GKOgg7Rop0Mvm-155" edge="1">
          <mxGeometry relative="1" as="geometry" />
        </mxCell>
        <mxCell id="P0ja4m1GKOgg7Rop0Mvm-67" value="«Component»&lt;br&gt;&lt;b&gt;AppVuex&lt;/b&gt;" style="html=1;" parent="P0ja4m1GKOgg7Rop0Mvm-24" vertex="1">
          <mxGeometry x="367.38" y="631.9949999999999" width="140" height="60" as="geometry" />
        </mxCell>
        <mxCell id="P0ja4m1GKOgg7Rop0Mvm-68" value="" style="shape=component;jettyWidth=8;jettyHeight=4;" parent="P0ja4m1GKOgg7Rop0Mvm-67" vertex="1">
          <mxGeometry x="1" width="20" height="20" relative="1" as="geometry">
            <mxPoint x="-27" y="10.169999999999892" as="offset" />
          </mxGeometry>
        </mxCell>
        <mxCell id="P0ja4m1GKOgg7Rop0Mvm-160" style="edgeStyle=orthogonalEdgeStyle;rounded=0;orthogonalLoop=1;jettySize=auto;html=1;entryX=0;entryY=0.5;entryDx=0;entryDy=0;entryPerimeter=0;endArrow=none;endFill=0;" parent="P0ja4m1GKOgg7Rop0Mvm-24" source="P0ja4m1GKOgg7Rop0Mvm-72" target="P0ja4m1GKOgg7Rop0Mvm-158" edge="1">
          <mxGeometry relative="1" as="geometry" />
        </mxCell>
        <mxCell id="P0ja4m1GKOgg7Rop0Mvm-72" value="«Component»&lt;br&gt;&lt;b&gt;AppLang&lt;/b&gt;" style="html=1;" parent="P0ja4m1GKOgg7Rop0Mvm-24" vertex="1">
          <mxGeometry x="365" y="270.985" width="140" height="60" as="geometry" />
        </mxCell>
        <mxCell id="P0ja4m1GKOgg7Rop0Mvm-73" value="" style="shape=component;jettyWidth=8;jettyHeight=4;" parent="P0ja4m1GKOgg7Rop0Mvm-72" vertex="1">
          <mxGeometry x="1" width="20" height="20" relative="1" as="geometry">
            <mxPoint x="-27" y="5" as="offset" />
          </mxGeometry>
        </mxCell>
        <mxCell id="P0ja4m1GKOgg7Rop0Mvm-183" style="edgeStyle=orthogonalEdgeStyle;rounded=0;orthogonalLoop=1;jettySize=auto;html=1;entryX=0;entryY=0.5;entryDx=0;entryDy=0;entryPerimeter=0;endArrow=none;endFill=0;exitX=1;exitY=0.5;exitDx=0;exitDy=0;" parent="P0ja4m1GKOgg7Rop0Mvm-24" source="uTpkXc_pbzOPR-OZeIzC-1" target="P0ja4m1GKOgg7Rop0Mvm-181" edge="1">
          <mxGeometry relative="1" as="geometry">
            <mxPoint x="11" y="280" as="sourcePoint" />
          </mxGeometry>
        </mxCell>
        <mxCell id="P0ja4m1GKOgg7Rop0Mvm-146" value="«Component»&lt;br&gt;&lt;b&gt;业务代码&lt;/b&gt;" style="html=1;" parent="P0ja4m1GKOgg7Rop0Mvm-24" vertex="1">
          <mxGeometry x="607.38" y="403" width="180" height="90" as="geometry" />
        </mxCell>
        <mxCell id="P0ja4m1GKOgg7Rop0Mvm-147" value="" style="shape=component;jettyWidth=8;jettyHeight=4;" parent="P0ja4m1GKOgg7Rop0Mvm-146" vertex="1">
          <mxGeometry x="1" width="20" height="20" relative="1" as="geometry">
            <mxPoint x="-27" y="7" as="offset" />
          </mxGeometry>
        </mxCell>
        <mxCell id="P0ja4m1GKOgg7Rop0Mvm-153" style="edgeStyle=orthogonalEdgeStyle;rounded=0;orthogonalLoop=1;jettySize=auto;html=1;endArrow=none;endFill=0;" parent="P0ja4m1GKOgg7Rop0Mvm-24" source="P0ja4m1GKOgg7Rop0Mvm-152" target="P0ja4m1GKOgg7Rop0Mvm-318" edge="1">
          <mxGeometry relative="1" as="geometry" />
        </mxCell>
        <mxCell id="P0ja4m1GKOgg7Rop0Mvm-152" value="appName/path" style="shape=providedRequiredInterface;html=1;verticalLabelPosition=bottom;direction=west;" parent="P0ja4m1GKOgg7Rop0Mvm-24" vertex="1">
          <mxGeometry x="285" y="410" width="20" height="20" as="geometry" />
        </mxCell>
        <mxCell id="P0ja4m1GKOgg7Rop0Mvm-157" style="edgeStyle=orthogonalEdgeStyle;rounded=0;orthogonalLoop=1;jettySize=auto;html=1;entryX=1;entryY=0.5;entryDx=0;entryDy=0;endArrow=none;endFill=0;exitX=1;exitY=0.5;exitDx=0;exitDy=0;exitPerimeter=0;" parent="P0ja4m1GKOgg7Rop0Mvm-24" source="P0ja4m1GKOgg7Rop0Mvm-155" target="P0ja4m1GKOgg7Rop0Mvm-318" edge="1">
          <mxGeometry relative="1" as="geometry" />
        </mxCell>
        <mxCell id="P0ja4m1GKOgg7Rop0Mvm-155" value="store" style="shape=providedRequiredInterface;html=1;verticalLabelPosition=bottom;direction=west;" parent="P0ja4m1GKOgg7Rop0Mvm-24" vertex="1">
          <mxGeometry x="267.38" y="651.99" width="20" height="20" as="geometry" />
        </mxCell>
        <mxCell id="P0ja4m1GKOgg7Rop0Mvm-161" style="edgeStyle=orthogonalEdgeStyle;rounded=0;orthogonalLoop=1;jettySize=auto;html=1;entryX=0.5;entryY=0;entryDx=0;entryDy=0;endArrow=none;endFill=0;exitX=1;exitY=0.5;exitDx=0;exitDy=0;exitPerimeter=0;" parent="P0ja4m1GKOgg7Rop0Mvm-24" source="P0ja4m1GKOgg7Rop0Mvm-158" target="P0ja4m1GKOgg7Rop0Mvm-146" edge="1">
          <mxGeometry relative="1" as="geometry">
            <mxPoint x="560" y="450" as="targetPoint" />
          </mxGeometry>
        </mxCell>
        <mxCell id="fyW6FbxkXhklxL_48_FK-1" style="edgeStyle=orthogonalEdgeStyle;rounded=0;orthogonalLoop=1;jettySize=auto;html=1;endArrow=none;endFill=0;" parent="P0ja4m1GKOgg7Rop0Mvm-24" source="P0ja4m1GKOgg7Rop0Mvm-158" target="P0ja4m1GKOgg7Rop0Mvm-318" edge="1">
          <mxGeometry relative="1" as="geometry">
            <Array as="points">
              <mxPoint x="610" y="352" />
              <mxPoint x="155" y="352" />
            </Array>
          </mxGeometry>
        </mxCell>
        <mxCell id="P0ja4m1GKOgg7Rop0Mvm-158" value="$i" style="shape=providedRequiredInterface;html=1;verticalLabelPosition=bottom;" parent="P0ja4m1GKOgg7Rop0Mvm-24" vertex="1">
          <mxGeometry x="600" y="290.98" width="20" height="20" as="geometry" />
        </mxCell>
        <mxCell id="P0ja4m1GKOgg7Rop0Mvm-164" style="edgeStyle=orthogonalEdgeStyle;rounded=0;orthogonalLoop=1;jettySize=auto;html=1;entryX=0.883;entryY=0.007;entryDx=0;entryDy=0;entryPerimeter=0;endArrow=none;endFill=0;" parent="P0ja4m1GKOgg7Rop0Mvm-24" source="P0ja4m1GKOgg7Rop0Mvm-162" target="P0ja4m1GKOgg7Rop0Mvm-146" edge="1">
          <mxGeometry relative="1" as="geometry" />
        </mxCell>
        <mxCell id="P0ja4m1GKOgg7Rop0Mvm-162" value="第三方依赖&lt;br&gt;（sortablejs...）" style="shape=folder;fontStyle=1;spacingTop=10;tabWidth=40;tabHeight=14;tabPosition=left;html=1;" parent="P0ja4m1GKOgg7Rop0Mvm-24" vertex="1">
          <mxGeometry x="810" y="290.98" width="140" height="80" as="geometry" />
        </mxCell>
        <mxCell id="P0ja4m1GKOgg7Rop0Mvm-168" style="edgeStyle=orthogonalEdgeStyle;rounded=0;orthogonalLoop=1;jettySize=auto;html=1;endArrow=none;endFill=0;" parent="P0ja4m1GKOgg7Rop0Mvm-24" source="P0ja4m1GKOgg7Rop0Mvm-165" target="P0ja4m1GKOgg7Rop0Mvm-146" edge="1">
          <mxGeometry relative="1" as="geometry" />
        </mxCell>
        <mxCell id="P0ja4m1GKOgg7Rop0Mvm-165" value="组件名" style="shape=providedRequiredInterface;html=1;verticalLabelPosition=bottom;" parent="P0ja4m1GKOgg7Rop0Mvm-24" vertex="1">
          <mxGeometry x="85" y="140" width="20" height="20" as="geometry" />
        </mxCell>
        <mxCell id="P0ja4m1GKOgg7Rop0Mvm-186" value="" style="edgeStyle=orthogonalEdgeStyle;rounded=0;orthogonalLoop=1;jettySize=auto;html=1;endArrow=none;endFill=0;" parent="P0ja4m1GKOgg7Rop0Mvm-24" source="P0ja4m1GKOgg7Rop0Mvm-180" target="P0ja4m1GKOgg7Rop0Mvm-72" edge="1">
          <mxGeometry relative="1" as="geometry" />
        </mxCell>
        <mxCell id="P0ja4m1GKOgg7Rop0Mvm-180" value="initI18n" style="shape=providedRequiredInterface;html=1;verticalLabelPosition=bottom;" parent="P0ja4m1GKOgg7Rop0Mvm-24" vertex="1">
          <mxGeometry x="310" y="290.98" width="20" height="20" as="geometry" />
        </mxCell>
        <mxCell id="P0ja4m1GKOgg7Rop0Mvm-184" value="" style="edgeStyle=orthogonalEdgeStyle;rounded=0;orthogonalLoop=1;jettySize=auto;html=1;endArrow=none;endFill=0;" parent="P0ja4m1GKOgg7Rop0Mvm-24" source="P0ja4m1GKOgg7Rop0Mvm-181" target="P0ja4m1GKOgg7Rop0Mvm-51" edge="1">
          <mxGeometry relative="1" as="geometry" />
        </mxCell>
        <mxCell id="P0ja4m1GKOgg7Rop0Mvm-181" value="event" style="shape=providedRequiredInterface;html=1;verticalLabelPosition=bottom;" parent="P0ja4m1GKOgg7Rop0Mvm-24" vertex="1">
          <mxGeometry x="310" y="192.00000000000006" width="20" height="20" as="geometry" />
        </mxCell>
        <mxCell id="P0ja4m1GKOgg7Rop0Mvm-274" value="" style="strokeColor=inherit;fillColor=inherit;gradientColor=inherit;shape=rect;points=[[0,0.5,0]];html=1;resizable=1;align=right;verticalAlign=bottom;labelPosition=left;verticalLabelPosition=top;labelBackgroundColor=none;fontSize=10;paart=1;" parent="P0ja4m1GKOgg7Rop0Mvm-24" vertex="1">
          <mxGeometry x="-8.695652173913004" y="411.5000000000003" width="20" height="20" as="geometry" />
        </mxCell>
        <mxCell id="P0ja4m1GKOgg7Rop0Mvm-322" style="edgeStyle=orthogonalEdgeStyle;rounded=0;orthogonalLoop=1;jettySize=auto;html=1;entryX=0.985;entryY=0.45;entryDx=0;entryDy=0;entryPerimeter=0;endArrow=none;endFill=0;" parent="P0ja4m1GKOgg7Rop0Mvm-24" source="P0ja4m1GKOgg7Rop0Mvm-318" target="P0ja4m1GKOgg7Rop0Mvm-274" edge="1">
          <mxGeometry relative="1" as="geometry">
            <mxPoint x="80" y="532" as="targetPoint" />
          </mxGeometry>
        </mxCell>
        <mxCell id="P0ja4m1GKOgg7Rop0Mvm-318" value="«Component»&lt;br&gt;Expose" style="html=1;" parent="P0ja4m1GKOgg7Rop0Mvm-24" vertex="1">
          <mxGeometry x="85" y="477.60576923076917" width="140" height="60" as="geometry" />
        </mxCell>
        <mxCell id="P0ja4m1GKOgg7Rop0Mvm-319" value="" style="shape=component;jettyWidth=8;jettyHeight=4;" parent="P0ja4m1GKOgg7Rop0Mvm-318" vertex="1">
          <mxGeometry x="1" width="20" height="20" relative="1" as="geometry">
            <mxPoint x="-27" y="5.550769230769184" as="offset" />
          </mxGeometry>
        </mxCell>
        <mxCell id="P0ja4m1GKOgg7Rop0Mvm-338" style="edgeStyle=orthogonalEdgeStyle;rounded=0;orthogonalLoop=1;jettySize=auto;html=1;entryX=0.5;entryY=0;entryDx=0;entryDy=0;endArrow=none;endFill=0;exitX=1;exitY=0.5;exitDx=0;exitDy=0;exitPerimeter=0;" parent="P0ja4m1GKOgg7Rop0Mvm-24" source="P0ja4m1GKOgg7Rop0Mvm-339" target="P0ja4m1GKOgg7Rop0Mvm-146" edge="1">
          <mxGeometry relative="1" as="geometry" />
        </mxCell>
        <mxCell id="P0ja4m1GKOgg7Rop0Mvm-336" value="«Component»&lt;br&gt;&lt;b&gt;CommonModule&lt;/b&gt;" style="html=1;" parent="P0ja4m1GKOgg7Rop0Mvm-24" vertex="1">
          <mxGeometry x="810" y="67.005" width="140" height="60" as="geometry" />
        </mxCell>
        <mxCell id="P0ja4m1GKOgg7Rop0Mvm-337" value="" style="shape=component;jettyWidth=8;jettyHeight=4;" parent="P0ja4m1GKOgg7Rop0Mvm-336" vertex="1">
          <mxGeometry x="1" width="20" height="20" relative="1" as="geometry">
            <mxPoint x="-27" y="5" as="offset" />
          </mxGeometry>
        </mxCell>
        <mxCell id="P0ja4m1GKOgg7Rop0Mvm-339" value="" style="shape=providedRequiredInterface;html=1;verticalLabelPosition=bottom;direction=west;" parent="P0ja4m1GKOgg7Rop0Mvm-24" vertex="1">
          <mxGeometry x="730" y="87" width="20" height="20" as="geometry" />
        </mxCell>
        <mxCell id="P0ja4m1GKOgg7Rop0Mvm-340" style="edgeStyle=orthogonalEdgeStyle;rounded=0;orthogonalLoop=1;jettySize=auto;html=1;entryX=0;entryY=0.5;entryDx=0;entryDy=0;endArrow=none;endFill=0;exitX=0;exitY=0.5;exitDx=0;exitDy=0;entryPerimeter=0;" parent="P0ja4m1GKOgg7Rop0Mvm-24" source="P0ja4m1GKOgg7Rop0Mvm-336" target="P0ja4m1GKOgg7Rop0Mvm-339" edge="1">
          <mxGeometry relative="1" as="geometry">
            <mxPoint x="1240" y="-0.005000000000109139" as="sourcePoint" />
            <mxPoint x="1160" y="347.3899999999999" as="targetPoint" />
          </mxGeometry>
        </mxCell>
        <mxCell id="P0ja4m1GKOgg7Rop0Mvm-167" value="" style="edgeStyle=orthogonalEdgeStyle;rounded=0;orthogonalLoop=1;jettySize=auto;html=1;entryX=0;entryY=0.5;entryDx=0;entryDy=0;entryPerimeter=0;endArrow=none;endFill=0;" parent="P0ja4m1GKOgg7Rop0Mvm-24" source="P0ja4m1GKOgg7Rop0Mvm-37" target="P0ja4m1GKOgg7Rop0Mvm-165" edge="1">
          <mxGeometry relative="1" as="geometry">
            <mxPoint x="91.304347826087" y="120.00076923076927" as="targetPoint" />
          </mxGeometry>
        </mxCell>
        <mxCell id="uTpkXc_pbzOPR-OZeIzC-1" value="«Component»&lt;br&gt;&lt;b&gt;Boostrap&lt;/b&gt;" style="html=1;" parent="P0ja4m1GKOgg7Rop0Mvm-24" vertex="1">
          <mxGeometry x="85" y="240.00499999999988" width="140" height="60" as="geometry" />
        </mxCell>
        <mxCell id="uTpkXc_pbzOPR-OZeIzC-2" value="" style="shape=component;jettyWidth=8;jettyHeight=4;" parent="uTpkXc_pbzOPR-OZeIzC-1" vertex="1">
          <mxGeometry x="1" width="20" height="20" relative="1" as="geometry">
            <mxPoint x="-27" y="10.169999999999892" as="offset" />
          </mxGeometry>
        </mxCell>
        <mxCell id="uTpkXc_pbzOPR-OZeIzC-8" style="edgeStyle=orthogonalEdgeStyle;rounded=0;orthogonalLoop=1;jettySize=auto;html=1;endArrow=none;endFill=0;" parent="P0ja4m1GKOgg7Rop0Mvm-24" source="uTpkXc_pbzOPR-OZeIzC-6" target="P0ja4m1GKOgg7Rop0Mvm-318" edge="1">
          <mxGeometry relative="1" as="geometry" />
        </mxCell>
        <mxCell id="uTpkXc_pbzOPR-OZeIzC-6" value="«Component»&lt;br&gt;&lt;b&gt;GaData&lt;/b&gt;" style="html=1;" parent="P0ja4m1GKOgg7Rop0Mvm-24" vertex="1">
          <mxGeometry x="365" y="477.60576923076917" width="140" height="60" as="geometry" />
        </mxCell>
        <mxCell id="uTpkXc_pbzOPR-OZeIzC-7" value="" style="shape=component;jettyWidth=8;jettyHeight=4;" parent="uTpkXc_pbzOPR-OZeIzC-6" vertex="1">
          <mxGeometry x="1" width="20" height="20" relative="1" as="geometry">
            <mxPoint x="-27" y="5.550769230769184" as="offset" />
          </mxGeometry>
        </mxCell>
        <mxCell id="uTpkXc_pbzOPR-OZeIzC-11" style="edgeStyle=orthogonalEdgeStyle;rounded=0;orthogonalLoop=1;jettySize=auto;html=1;entryX=1;entryY=0.5;entryDx=0;entryDy=0;endArrow=none;endFill=0;" parent="P0ja4m1GKOgg7Rop0Mvm-24" source="uTpkXc_pbzOPR-OZeIzC-9" target="P0ja4m1GKOgg7Rop0Mvm-318" edge="1">
          <mxGeometry relative="1" as="geometry" />
        </mxCell>
        <mxCell id="uTpkXc_pbzOPR-OZeIzC-9" value="«Component»&lt;br&gt;&lt;b&gt;Vtypes&lt;/b&gt;" style="html=1;" parent="P0ja4m1GKOgg7Rop0Mvm-24" vertex="1">
          <mxGeometry x="365" y="557.6057692307692" width="140" height="60" as="geometry" />
        </mxCell>
        <mxCell id="uTpkXc_pbzOPR-OZeIzC-10" value="" style="shape=component;jettyWidth=8;jettyHeight=4;" parent="uTpkXc_pbzOPR-OZeIzC-9" vertex="1">
          <mxGeometry x="1" width="20" height="20" relative="1" as="geometry">
            <mxPoint x="-27" y="5.550769230769184" as="offset" />
          </mxGeometry>
        </mxCell>
        <mxCell id="fyW6FbxkXhklxL_48_FK-5" style="edgeStyle=orthogonalEdgeStyle;rounded=0;orthogonalLoop=1;jettySize=auto;html=1;endArrow=none;endFill=0;" parent="P0ja4m1GKOgg7Rop0Mvm-24" source="fyW6FbxkXhklxL_48_FK-3" target="P0ja4m1GKOgg7Rop0Mvm-62" edge="1">
          <mxGeometry relative="1" as="geometry" />
        </mxCell>
        <mxCell id="fyW6FbxkXhklxL_48_FK-3" value="Component" style="shape=providedRequiredInterface;html=1;verticalLabelPosition=bottom;direction=west;" parent="P0ja4m1GKOgg7Rop0Mvm-24" vertex="1">
          <mxGeometry x="547.38" y="410" width="20" height="20" as="geometry" />
        </mxCell>
        <mxCell id="P0ja4m1GKOgg7Rop0Mvm-138" style="edgeStyle=orthogonalEdgeStyle;rounded=0;orthogonalLoop=1;jettySize=auto;html=1;entryX=0.45;entryY=0.5;entryDx=0;entryDy=0;entryPerimeter=0;endArrow=none;endFill=0;" parent="P0ja4m1GKOgg7Rop0Mvm-1" source="P0ja4m1GKOgg7Rop0Mvm-215" target="P0ja4m1GKOgg7Rop0Mvm-137" edge="1">
          <mxGeometry relative="1" as="geometry" />
        </mxCell>
        <mxCell id="P0ja4m1GKOgg7Rop0Mvm-132" value="«Component»&lt;br&gt;&lt;b&gt;基座&lt;/b&gt;" style="html=1;verticalAlign=top;" parent="P0ja4m1GKOgg7Rop0Mvm-1" vertex="1">
          <mxGeometry x="-750" y="-71.5" width="790.004347826087" height="670.5" as="geometry" />
        </mxCell>
        <mxCell id="P0ja4m1GKOgg7Rop0Mvm-133" value="" style="shape=component;jettyWidth=8;jettyHeight=4;" parent="P0ja4m1GKOgg7Rop0Mvm-132" vertex="1">
          <mxGeometry x="1" width="20" height="20" relative="1" as="geometry">
            <mxPoint x="-27" y="7" as="offset" />
          </mxGeometry>
        </mxCell>
        <mxCell id="_i9oU_zUnFVyXfJFAMEZ-109" style="edgeStyle=orthogonalEdgeStyle;rounded=0;orthogonalLoop=1;jettySize=auto;html=1;endArrow=none;endFill=0;entryX=0;entryY=0.25;entryDx=0;entryDy=0;" parent="P0ja4m1GKOgg7Rop0Mvm-132" source="P0ja4m1GKOgg7Rop0Mvm-200" target="_i9oU_zUnFVyXfJFAMEZ-20" edge="1">
          <mxGeometry relative="1" as="geometry" />
        </mxCell>
        <mxCell id="P0ja4m1GKOgg7Rop0Mvm-200" value="«Component»&lt;br&gt;&lt;b&gt;i18nIntl&lt;/b&gt;" style="html=1;fontFamily=Helvetica;fontSize=12;fontColor=#000000;align=center;strokeColor=#000000;fillColor=#ffffff;" parent="P0ja4m1GKOgg7Rop0Mvm-132" vertex="1">
          <mxGeometry x="315" y="164.5" width="140" height="60" as="geometry" />
        </mxCell>
        <mxCell id="_i9oU_zUnFVyXfJFAMEZ-110" style="edgeStyle=orthogonalEdgeStyle;rounded=0;orthogonalLoop=1;jettySize=auto;html=1;endArrow=none;endFill=0;entryX=0;entryY=0.25;entryDx=0;entryDy=0;" parent="P0ja4m1GKOgg7Rop0Mvm-132" source="P0ja4m1GKOgg7Rop0Mvm-202" target="_i9oU_zUnFVyXfJFAMEZ-20" edge="1">
          <mxGeometry relative="1" as="geometry" />
        </mxCell>
        <mxCell id="P0ja4m1GKOgg7Rop0Mvm-202" value="«Component»&lt;br&gt;&lt;b&gt;NavMenu&lt;/b&gt;" style="html=1;" parent="P0ja4m1GKOgg7Rop0Mvm-132" vertex="1">
          <mxGeometry x="315" y="263.5" width="140" height="60" as="geometry" />
        </mxCell>
        <mxCell id="_i9oU_zUnFVyXfJFAMEZ-108" style="edgeStyle=orthogonalEdgeStyle;rounded=0;orthogonalLoop=1;jettySize=auto;html=1;entryX=0;entryY=0.25;entryDx=0;entryDy=0;endArrow=none;endFill=0;exitX=1;exitY=0.5;exitDx=0;exitDy=0;" parent="P0ja4m1GKOgg7Rop0Mvm-132" source="P0ja4m1GKOgg7Rop0Mvm-212" target="_i9oU_zUnFVyXfJFAMEZ-20" edge="1">
          <mxGeometry relative="1" as="geometry" />
        </mxCell>
        <mxCell id="P0ja4m1GKOgg7Rop0Mvm-212" value="«Component»&lt;br&gt;&lt;b&gt;App.vue&lt;/b&gt;" style="html=1;" parent="P0ja4m1GKOgg7Rop0Mvm-132" vertex="1">
          <mxGeometry x="315" y="71.5" width="140" height="60" as="geometry" />
        </mxCell>
        <mxCell id="P0ja4m1GKOgg7Rop0Mvm-215" value="" style="strokeColor=inherit;fillColor=inherit;gradientColor=inherit;shape=rect;points=[[0,0.5,0]];html=1;resizable=1;align=right;verticalAlign=bottom;labelPosition=left;verticalLabelPosition=top;labelBackgroundColor=none;fontSize=10;paart=1;" parent="P0ja4m1GKOgg7Rop0Mvm-132" vertex="1">
          <mxGeometry x="780.004347826087" y="271.5000000000003" width="20" height="20" as="geometry" />
        </mxCell>
        <mxCell id="P0ja4m1GKOgg7Rop0Mvm-220" style="edgeStyle=orthogonalEdgeStyle;rounded=0;orthogonalLoop=1;jettySize=auto;html=1;endArrow=none;endFill=0;" parent="P0ja4m1GKOgg7Rop0Mvm-132" source="_i9oU_zUnFVyXfJFAMEZ-26" target="P0ja4m1GKOgg7Rop0Mvm-218" edge="1">
          <mxGeometry relative="1" as="geometry" />
        </mxCell>
        <mxCell id="_i9oU_zUnFVyXfJFAMEZ-103" style="edgeStyle=orthogonalEdgeStyle;rounded=0;orthogonalLoop=1;jettySize=auto;html=1;entryX=0;entryY=0.5;entryDx=0;entryDy=0;entryPerimeter=0;endArrow=none;endFill=0;" parent="P0ja4m1GKOgg7Rop0Mvm-132" source="P0ja4m1GKOgg7Rop0Mvm-218" target="_i9oU_zUnFVyXfJFAMEZ-101" edge="1">
          <mxGeometry relative="1" as="geometry" />
        </mxCell>
        <mxCell id="P0ja4m1GKOgg7Rop0Mvm-218" value="«Component»&lt;br&gt;initApps" style="html=1;" parent="P0ja4m1GKOgg7Rop0Mvm-132" vertex="1">
          <mxGeometry x="315" y="361.5" width="140" height="60" as="geometry" />
        </mxCell>
        <mxCell id="uTpkXc_pbzOPR-OZeIzC-12" style="edgeStyle=orthogonalEdgeStyle;rounded=0;orthogonalLoop=1;jettySize=auto;html=1;exitX=1;exitY=0.5;exitDx=0;exitDy=0;entryX=0;entryY=0.5;entryDx=0;entryDy=0;endArrow=none;endFill=0;" parent="P0ja4m1GKOgg7Rop0Mvm-132" edge="1">
          <mxGeometry relative="1" as="geometry">
            <mxPoint x="180" y="101.5" as="sourcePoint" />
            <mxPoint x="315" y="391.5" as="targetPoint" />
            <Array as="points">
              <mxPoint x="280" y="102" />
              <mxPoint x="280" y="392" />
            </Array>
          </mxGeometry>
        </mxCell>
        <mxCell id="P0ja4m1GKOgg7Rop0Mvm-326" value="«Component»&lt;br&gt;&lt;b&gt;HostEvent&lt;/b&gt;" style="html=1;" parent="P0ja4m1GKOgg7Rop0Mvm-132" vertex="1">
          <mxGeometry x="40" y="71.5" width="140" height="60" as="geometry" />
        </mxCell>
        <mxCell id="P0ja4m1GKOgg7Rop0Mvm-327" value="" style="shape=component;jettyWidth=8;jettyHeight=4;" parent="P0ja4m1GKOgg7Rop0Mvm-326" vertex="1">
          <mxGeometry x="1" width="20" height="20" relative="1" as="geometry">
            <mxPoint x="-27" y="7" as="offset" />
          </mxGeometry>
        </mxCell>
        <mxCell id="88ZOR_6z-h5jlWXxYAyo-15" value="«Component»&lt;br&gt;&lt;b&gt;Sentry&lt;/b&gt;" style="html=1;" parent="P0ja4m1GKOgg7Rop0Mvm-132" vertex="1">
          <mxGeometry x="315" y="561.5" width="140" height="60" as="geometry" />
        </mxCell>
        <mxCell id="88ZOR_6z-h5jlWXxYAyo-16" value="" style="shape=component;jettyWidth=8;jettyHeight=4;" parent="88ZOR_6z-h5jlWXxYAyo-15" vertex="1">
          <mxGeometry x="1" width="20" height="20" relative="1" as="geometry">
            <mxPoint x="-27" y="7" as="offset" />
          </mxGeometry>
        </mxCell>
        <mxCell id="_i9oU_zUnFVyXfJFAMEZ-7" style="edgeStyle=orthogonalEdgeStyle;rounded=0;orthogonalLoop=1;jettySize=auto;html=1;endArrow=none;endFill=0;" parent="P0ja4m1GKOgg7Rop0Mvm-132" source="P0ja4m1GKOgg7Rop0Mvm-218" target="_i9oU_zUnFVyXfJFAMEZ-6" edge="1">
          <mxGeometry relative="1" as="geometry">
            <mxPoint x="-260" y="320" as="sourcePoint" />
            <mxPoint x="-440" y="340" as="targetPoint" />
          </mxGeometry>
        </mxCell>
        <mxCell id="_i9oU_zUnFVyXfJFAMEZ-30" style="edgeStyle=orthogonalEdgeStyle;rounded=0;orthogonalLoop=1;jettySize=auto;html=1;entryX=1;entryY=0.5;entryDx=0;entryDy=0;endArrow=none;endFill=0;exitX=0.5;exitY=1;exitDx=0;exitDy=0;" parent="P0ja4m1GKOgg7Rop0Mvm-132" source="_i9oU_zUnFVyXfJFAMEZ-20" target="_i9oU_zUnFVyXfJFAMEZ-28" edge="1">
          <mxGeometry relative="1" as="geometry" />
        </mxCell>
        <mxCell id="_i9oU_zUnFVyXfJFAMEZ-90" style="edgeStyle=orthogonalEdgeStyle;rounded=0;orthogonalLoop=1;jettySize=auto;html=1;entryX=1;entryY=0.5;entryDx=0;entryDy=0;endArrow=none;endFill=0;exitX=0.5;exitY=1;exitDx=0;exitDy=0;" parent="P0ja4m1GKOgg7Rop0Mvm-132" source="_i9oU_zUnFVyXfJFAMEZ-20" target="88ZOR_6z-h5jlWXxYAyo-15" edge="1">
          <mxGeometry relative="1" as="geometry" />
        </mxCell>
        <mxCell id="_i9oU_zUnFVyXfJFAMEZ-92" style="edgeStyle=orthogonalEdgeStyle;rounded=0;orthogonalLoop=1;jettySize=auto;html=1;entryX=1;entryY=0.5;entryDx=0;entryDy=0;endArrow=none;endFill=0;exitX=1;exitY=0.5;exitDx=0;exitDy=0;exitPerimeter=0;" parent="P0ja4m1GKOgg7Rop0Mvm-132" source="uTpkXc_pbzOPR-OZeIzC-4" target="P0ja4m1GKOgg7Rop0Mvm-346" edge="1">
          <mxGeometry relative="1" as="geometry" />
        </mxCell>
        <mxCell id="_i9oU_zUnFVyXfJFAMEZ-97" style="edgeStyle=orthogonalEdgeStyle;rounded=0;orthogonalLoop=1;jettySize=auto;html=1;endArrow=none;endFill=0;exitX=0.5;exitY=1;exitDx=0;exitDy=0;entryX=1;entryY=0.5;entryDx=0;entryDy=0;" parent="P0ja4m1GKOgg7Rop0Mvm-132" source="_i9oU_zUnFVyXfJFAMEZ-20" target="_i9oU_zUnFVyXfJFAMEZ-93" edge="1">
          <mxGeometry relative="1" as="geometry" />
        </mxCell>
        <mxCell id="uTpkXc_pbzOPR-OZeIzC-0" style="edgeStyle=orthogonalEdgeStyle;rounded=0;orthogonalLoop=1;jettySize=auto;html=1;exitX=0.5;exitY=1;exitDx=0;exitDy=0;entryX=1;entryY=0.5;entryDx=0;entryDy=0;endArrow=none;endFill=0;" parent="P0ja4m1GKOgg7Rop0Mvm-132" source="_i9oU_zUnFVyXfJFAMEZ-20" target="U4MLQMwE_INXQrKsp666-0" edge="1">
          <mxGeometry relative="1" as="geometry" />
        </mxCell>
        <mxCell id="uTpkXc_pbzOPR-OZeIzC-25" style="edgeStyle=orthogonalEdgeStyle;rounded=0;orthogonalLoop=1;jettySize=auto;html=1;exitX=0.5;exitY=1;exitDx=0;exitDy=0;entryX=0;entryY=0.5;entryDx=0;entryDy=0;endArrow=none;endFill=0;" parent="P0ja4m1GKOgg7Rop0Mvm-132" source="_i9oU_zUnFVyXfJFAMEZ-20" target="_i9oU_zUnFVyXfJFAMEZ-79" edge="1">
          <mxGeometry relative="1" as="geometry" />
        </mxCell>
        <mxCell id="_i9oU_zUnFVyXfJFAMEZ-20" value="«Component»&lt;br&gt;&lt;b&gt;Boostrap&lt;/b&gt;" style="html=1;" parent="P0ja4m1GKOgg7Rop0Mvm-132" vertex="1">
          <mxGeometry x="540" y="361.5" width="140" height="60" as="geometry" />
        </mxCell>
        <mxCell id="_i9oU_zUnFVyXfJFAMEZ-21" value="" style="shape=component;jettyWidth=8;jettyHeight=4;" parent="_i9oU_zUnFVyXfJFAMEZ-20" vertex="1">
          <mxGeometry x="1" width="20" height="20" relative="1" as="geometry">
            <mxPoint x="-27" y="7" as="offset" />
          </mxGeometry>
        </mxCell>
        <mxCell id="_i9oU_zUnFVyXfJFAMEZ-26" value="remoteList" style="shape=providedRequiredInterface;html=1;verticalLabelPosition=bottom;direction=west;" parent="P0ja4m1GKOgg7Rop0Mvm-132" vertex="1">
          <mxGeometry x="490" y="381.5" width="20" height="20" as="geometry" />
        </mxCell>
        <mxCell id="_i9oU_zUnFVyXfJFAMEZ-27" style="edgeStyle=orthogonalEdgeStyle;rounded=0;orthogonalLoop=1;jettySize=auto;html=1;endArrow=none;endFill=0;" parent="P0ja4m1GKOgg7Rop0Mvm-132" source="_i9oU_zUnFVyXfJFAMEZ-20" target="_i9oU_zUnFVyXfJFAMEZ-26" edge="1">
          <mxGeometry relative="1" as="geometry">
            <mxPoint x="-210" y="350" as="sourcePoint" />
            <mxPoint x="-295" y="350" as="targetPoint" />
          </mxGeometry>
        </mxCell>
        <mxCell id="_i9oU_zUnFVyXfJFAMEZ-28" value="«Component»&lt;br&gt;CSS" style="html=1;" parent="P0ja4m1GKOgg7Rop0Mvm-132" vertex="1">
          <mxGeometry x="40" y="521.5" width="140" height="60" as="geometry" />
        </mxCell>
        <mxCell id="_i9oU_zUnFVyXfJFAMEZ-29" value="" style="shape=component;jettyWidth=8;jettyHeight=4;" parent="_i9oU_zUnFVyXfJFAMEZ-28" vertex="1">
          <mxGeometry x="1" width="20" height="20" relative="1" as="geometry">
            <mxPoint x="-27" y="7" as="offset" />
          </mxGeometry>
        </mxCell>
        <mxCell id="_i9oU_zUnFVyXfJFAMEZ-73" style="edgeStyle=orthogonalEdgeStyle;rounded=0;orthogonalLoop=1;jettySize=auto;html=1;entryX=0;entryY=0.5;entryDx=0;entryDy=0;endArrow=none;endFill=0;entryPerimeter=0;" parent="P0ja4m1GKOgg7Rop0Mvm-132" source="P0ja4m1GKOgg7Rop0Mvm-218" target="_i9oU_zUnFVyXfJFAMEZ-72" edge="1">
          <mxGeometry relative="1" as="geometry">
            <mxPoint x="-435" y="320" as="sourcePoint" />
            <mxPoint x="-570" y="180" as="targetPoint" />
          </mxGeometry>
        </mxCell>
        <mxCell id="_i9oU_zUnFVyXfJFAMEZ-106" style="edgeStyle=orthogonalEdgeStyle;rounded=0;orthogonalLoop=1;jettySize=auto;html=1;entryX=0.5;entryY=1;entryDx=0;entryDy=0;endArrow=none;endFill=0;exitX=0;exitY=0.5;exitDx=0;exitDy=0;" parent="P0ja4m1GKOgg7Rop0Mvm-132" source="P0ja4m1GKOgg7Rop0Mvm-107" target="_i9oU_zUnFVyXfJFAMEZ-20" edge="1">
          <mxGeometry relative="1" as="geometry" />
        </mxCell>
        <mxCell id="P0ja4m1GKOgg7Rop0Mvm-107" value="«Component»&lt;br&gt;&lt;b&gt;全局组件&lt;/b&gt;" style="html=1;verticalAlign=middle;" parent="P0ja4m1GKOgg7Rop0Mvm-132" vertex="1">
          <mxGeometry x="640" y="561.5" width="140" height="58.5" as="geometry" />
        </mxCell>
        <mxCell id="P0ja4m1GKOgg7Rop0Mvm-108" value="" style="shape=component;jettyWidth=8;jettyHeight=4;" parent="P0ja4m1GKOgg7Rop0Mvm-107" vertex="1">
          <mxGeometry x="1" width="20" height="20" relative="1" as="geometry">
            <mxPoint x="-27" y="7" as="offset" />
          </mxGeometry>
        </mxCell>
        <mxCell id="_i9oU_zUnFVyXfJFAMEZ-79" value="«Component»&lt;br&gt;&lt;b&gt;过滤器&lt;/b&gt;" style="html=1;verticalAlign=middle;" parent="P0ja4m1GKOgg7Rop0Mvm-132" vertex="1">
          <mxGeometry x="640" y="475" width="140" height="58.5" as="geometry" />
        </mxCell>
        <mxCell id="_i9oU_zUnFVyXfJFAMEZ-80" value="" style="shape=component;jettyWidth=8;jettyHeight=4;" parent="_i9oU_zUnFVyXfJFAMEZ-79" vertex="1">
          <mxGeometry x="1" width="20" height="20" relative="1" as="geometry">
            <mxPoint x="-27" y="7" as="offset" />
          </mxGeometry>
        </mxCell>
        <mxCell id="_i9oU_zUnFVyXfJFAMEZ-81" value="«Component»&lt;br&gt;&lt;b&gt;Expose&lt;/b&gt;" style="html=1;" parent="P0ja4m1GKOgg7Rop0Mvm-132" vertex="1">
          <mxGeometry x="540" y="251.5" width="140" height="60" as="geometry" />
        </mxCell>
        <mxCell id="_i9oU_zUnFVyXfJFAMEZ-82" value="" style="shape=component;jettyWidth=8;jettyHeight=4;" parent="_i9oU_zUnFVyXfJFAMEZ-81" vertex="1">
          <mxGeometry x="1" width="20" height="20" relative="1" as="geometry">
            <mxPoint x="-27" y="7" as="offset" />
          </mxGeometry>
        </mxCell>
        <mxCell id="_i9oU_zUnFVyXfJFAMEZ-85" style="edgeStyle=orthogonalEdgeStyle;rounded=0;orthogonalLoop=1;jettySize=auto;html=1;endArrow=none;endFill=0;" parent="P0ja4m1GKOgg7Rop0Mvm-132" source="_i9oU_zUnFVyXfJFAMEZ-81" target="P0ja4m1GKOgg7Rop0Mvm-215" edge="1">
          <mxGeometry relative="1" as="geometry">
            <mxPoint x="-70" y="210" as="sourcePoint" />
            <mxPoint x="710" y="281.5" as="targetPoint" />
          </mxGeometry>
        </mxCell>
        <mxCell id="P0ja4m1GKOgg7Rop0Mvm-346" value="«Component»&lt;br&gt;&lt;b&gt;Matomo&lt;/b&gt;" style="html=1;verticalAlign=middle;" parent="P0ja4m1GKOgg7Rop0Mvm-132" vertex="1">
          <mxGeometry x="315" y="473.5" width="140" height="60" as="geometry" />
        </mxCell>
        <mxCell id="P0ja4m1GKOgg7Rop0Mvm-347" value="" style="shape=component;jettyWidth=8;jettyHeight=4;" parent="P0ja4m1GKOgg7Rop0Mvm-346" vertex="1">
          <mxGeometry x="1" width="20" height="20" relative="1" as="geometry">
            <mxPoint x="-27" y="7" as="offset" />
          </mxGeometry>
        </mxCell>
        <mxCell id="_i9oU_zUnFVyXfJFAMEZ-86" value="" style="group" parent="P0ja4m1GKOgg7Rop0Mvm-132" vertex="1" connectable="0">
          <mxGeometry x="40" y="241.5" width="200" height="60" as="geometry" />
        </mxCell>
        <mxCell id="_i9oU_zUnFVyXfJFAMEZ-69" value="«Component»&lt;br&gt;&lt;b&gt;Vuex&lt;/b&gt;" style="html=1;" parent="_i9oU_zUnFVyXfJFAMEZ-86" vertex="1">
          <mxGeometry width="140" height="60" as="geometry" />
        </mxCell>
        <mxCell id="_i9oU_zUnFVyXfJFAMEZ-70" value="" style="shape=component;jettyWidth=8;jettyHeight=4;" parent="_i9oU_zUnFVyXfJFAMEZ-69" vertex="1">
          <mxGeometry x="1" width="20" height="20" relative="1" as="geometry">
            <mxPoint x="-27" y="7" as="offset" />
          </mxGeometry>
        </mxCell>
        <mxCell id="_i9oU_zUnFVyXfJFAMEZ-72" value="store" style="shape=providedRequiredInterface;html=1;verticalLabelPosition=bottom;direction=west;" parent="_i9oU_zUnFVyXfJFAMEZ-86" vertex="1">
          <mxGeometry x="180" y="20" width="20" height="20" as="geometry" />
        </mxCell>
        <mxCell id="_i9oU_zUnFVyXfJFAMEZ-71" style="edgeStyle=orthogonalEdgeStyle;rounded=0;orthogonalLoop=1;jettySize=auto;html=1;entryX=1;entryY=0.5;entryDx=0;entryDy=0;endArrow=none;endFill=0;" parent="_i9oU_zUnFVyXfJFAMEZ-86" source="_i9oU_zUnFVyXfJFAMEZ-72" target="_i9oU_zUnFVyXfJFAMEZ-69" edge="1">
          <mxGeometry relative="1" as="geometry" />
        </mxCell>
        <mxCell id="_i9oU_zUnFVyXfJFAMEZ-87" value="" style="group" parent="P0ja4m1GKOgg7Rop0Mvm-132" vertex="1" connectable="0">
          <mxGeometry x="40" y="321.5" width="200" height="60" as="geometry" />
        </mxCell>
        <mxCell id="_i9oU_zUnFVyXfJFAMEZ-0" value="«Component»&lt;br&gt;&lt;b&gt;Router&lt;/b&gt;" style="html=1;" parent="_i9oU_zUnFVyXfJFAMEZ-87" vertex="1">
          <mxGeometry width="140" height="60" as="geometry" />
        </mxCell>
        <mxCell id="_i9oU_zUnFVyXfJFAMEZ-1" value="" style="shape=component;jettyWidth=8;jettyHeight=4;" parent="_i9oU_zUnFVyXfJFAMEZ-0" vertex="1">
          <mxGeometry x="1" width="20" height="20" relative="1" as="geometry">
            <mxPoint x="-27" y="7" as="offset" />
          </mxGeometry>
        </mxCell>
        <mxCell id="_i9oU_zUnFVyXfJFAMEZ-6" value="router" style="shape=providedRequiredInterface;html=1;verticalLabelPosition=bottom;direction=west;" parent="_i9oU_zUnFVyXfJFAMEZ-87" vertex="1">
          <mxGeometry x="180" y="20" width="20" height="20" as="geometry" />
        </mxCell>
        <mxCell id="_i9oU_zUnFVyXfJFAMEZ-5" style="edgeStyle=orthogonalEdgeStyle;rounded=0;orthogonalLoop=1;jettySize=auto;html=1;endArrow=none;endFill=0;" parent="_i9oU_zUnFVyXfJFAMEZ-87" source="_i9oU_zUnFVyXfJFAMEZ-6" target="_i9oU_zUnFVyXfJFAMEZ-0" edge="1">
          <mxGeometry relative="1" as="geometry" />
        </mxCell>
        <mxCell id="_i9oU_zUnFVyXfJFAMEZ-93" value="«Component»&lt;br&gt;VueComponent" style="html=1;" parent="P0ja4m1GKOgg7Rop0Mvm-132" vertex="1">
          <mxGeometry x="40" y="421.5" width="140" height="60" as="geometry" />
        </mxCell>
        <mxCell id="_i9oU_zUnFVyXfJFAMEZ-94" value="" style="shape=component;jettyWidth=8;jettyHeight=4;" parent="_i9oU_zUnFVyXfJFAMEZ-93" vertex="1">
          <mxGeometry x="1" width="20" height="20" relative="1" as="geometry">
            <mxPoint x="-27" y="7" as="offset" />
          </mxGeometry>
        </mxCell>
        <mxCell id="_i9oU_zUnFVyXfJFAMEZ-98" value="" style="group" parent="P0ja4m1GKOgg7Rop0Mvm-132" vertex="1" connectable="0">
          <mxGeometry x="40" y="151.5" width="200" height="60" as="geometry" />
        </mxCell>
        <mxCell id="_i9oU_zUnFVyXfJFAMEZ-99" value="«Component»&lt;br&gt;&lt;b&gt;Vtype&lt;/b&gt;" style="html=1;" parent="_i9oU_zUnFVyXfJFAMEZ-98" vertex="1">
          <mxGeometry width="140" height="60" as="geometry" />
        </mxCell>
        <mxCell id="_i9oU_zUnFVyXfJFAMEZ-100" value="" style="shape=component;jettyWidth=8;jettyHeight=4;" parent="_i9oU_zUnFVyXfJFAMEZ-99" vertex="1">
          <mxGeometry x="1" width="20" height="20" relative="1" as="geometry">
            <mxPoint x="-27" y="7" as="offset" />
          </mxGeometry>
        </mxCell>
        <mxCell id="_i9oU_zUnFVyXfJFAMEZ-101" value="vtype" style="shape=providedRequiredInterface;html=1;verticalLabelPosition=bottom;direction=west;" parent="_i9oU_zUnFVyXfJFAMEZ-98" vertex="1">
          <mxGeometry x="180" y="20" width="20" height="20" as="geometry" />
        </mxCell>
        <mxCell id="_i9oU_zUnFVyXfJFAMEZ-102" style="edgeStyle=orthogonalEdgeStyle;rounded=0;orthogonalLoop=1;jettySize=auto;html=1;entryX=1;entryY=0.5;entryDx=0;entryDy=0;endArrow=none;endFill=0;" parent="_i9oU_zUnFVyXfJFAMEZ-98" source="_i9oU_zUnFVyXfJFAMEZ-101" target="_i9oU_zUnFVyXfJFAMEZ-99" edge="1">
          <mxGeometry relative="1" as="geometry" />
        </mxCell>
        <mxCell id="U4MLQMwE_INXQrKsp666-0" value="«Component»&lt;br&gt;Axios" style="html=1;" parent="P0ja4m1GKOgg7Rop0Mvm-132" vertex="1">
          <mxGeometry x="40" y="601.5" width="140" height="60" as="geometry" />
        </mxCell>
        <mxCell id="U4MLQMwE_INXQrKsp666-1" value="" style="shape=component;jettyWidth=8;jettyHeight=4;" parent="U4MLQMwE_INXQrKsp666-0" vertex="1">
          <mxGeometry x="1" width="20" height="20" relative="1" as="geometry">
            <mxPoint x="-27" y="7" as="offset" />
          </mxGeometry>
        </mxCell>
        <mxCell id="uTpkXc_pbzOPR-OZeIzC-4" value="GaData" style="shape=providedRequiredInterface;html=1;verticalLabelPosition=bottom;direction=west;" parent="P0ja4m1GKOgg7Rop0Mvm-132" vertex="1">
          <mxGeometry x="510" y="493.5" width="20" height="20" as="geometry" />
        </mxCell>
        <mxCell id="uTpkXc_pbzOPR-OZeIzC-5" style="edgeStyle=orthogonalEdgeStyle;rounded=0;orthogonalLoop=1;jettySize=auto;html=1;endArrow=none;endFill=0;exitX=0.5;exitY=1;exitDx=0;exitDy=0;entryX=0;entryY=0.5;entryDx=0;entryDy=0;entryPerimeter=0;" parent="P0ja4m1GKOgg7Rop0Mvm-132" source="_i9oU_zUnFVyXfJFAMEZ-20" target="uTpkXc_pbzOPR-OZeIzC-4" edge="1">
          <mxGeometry relative="1" as="geometry">
            <mxPoint x="-140" y="380" as="sourcePoint" />
            <mxPoint x="-295" y="432" as="targetPoint" />
          </mxGeometry>
        </mxCell>
        <mxCell id="uTpkXc_pbzOPR-OZeIzC-21" value="" style="shape=component;jettyWidth=8;jettyHeight=4;" parent="P0ja4m1GKOgg7Rop0Mvm-132" vertex="1">
          <mxGeometry x="428" y="368.5" width="20" height="20" as="geometry">
            <mxPoint x="-27" y="7" as="offset" />
          </mxGeometry>
        </mxCell>
        <mxCell id="uTpkXc_pbzOPR-OZeIzC-22" value="" style="shape=component;jettyWidth=8;jettyHeight=4;" parent="P0ja4m1GKOgg7Rop0Mvm-132" vertex="1">
          <mxGeometry x="428" y="271.5" width="20" height="20" as="geometry">
            <mxPoint x="-27" y="7" as="offset" />
          </mxGeometry>
        </mxCell>
        <mxCell id="uTpkXc_pbzOPR-OZeIzC-23" value="" style="shape=component;jettyWidth=8;jettyHeight=4;" parent="P0ja4m1GKOgg7Rop0Mvm-132" vertex="1">
          <mxGeometry x="428" y="171.5" width="20" height="20" as="geometry">
            <mxPoint x="-27" y="7" as="offset" />
          </mxGeometry>
        </mxCell>
        <mxCell id="uTpkXc_pbzOPR-OZeIzC-24" value="" style="shape=component;jettyWidth=8;jettyHeight=4;" parent="P0ja4m1GKOgg7Rop0Mvm-132" vertex="1">
          <mxGeometry x="428" y="79.5" width="20" height="20" as="geometry">
            <mxPoint x="-27" y="7" as="offset" />
          </mxGeometry>
        </mxCell>
        <mxCell id="uTpkXc_pbzOPR-OZeIzC-28" style="edgeStyle=orthogonalEdgeStyle;rounded=0;orthogonalLoop=1;jettySize=auto;html=1;endArrow=none;endFill=0;" parent="P0ja4m1GKOgg7Rop0Mvm-132" source="uTpkXc_pbzOPR-OZeIzC-26" target="_i9oU_zUnFVyXfJFAMEZ-81" edge="1">
          <mxGeometry relative="1" as="geometry" />
        </mxCell>
        <mxCell id="uTpkXc_pbzOPR-OZeIzC-26" value="«Component»&lt;br&gt;&lt;b&gt;业务组件、mixin&lt;/b&gt;" style="html=1;verticalAlign=middle;" parent="P0ja4m1GKOgg7Rop0Mvm-132" vertex="1">
          <mxGeometry x="540" y="73" width="140" height="60" as="geometry" />
        </mxCell>
        <mxCell id="uTpkXc_pbzOPR-OZeIzC-27" value="" style="shape=component;jettyWidth=8;jettyHeight=4;" parent="uTpkXc_pbzOPR-OZeIzC-26" vertex="1">
          <mxGeometry x="1" width="20" height="20" relative="1" as="geometry">
            <mxPoint x="-27" y="7" as="offset" />
          </mxGeometry>
        </mxCell>
        <mxCell id="P0ja4m1GKOgg7Rop0Mvm-139" style="edgeStyle=orthogonalEdgeStyle;rounded=0;orthogonalLoop=1;jettySize=auto;html=1;entryX=0;entryY=0.5;entryDx=0;entryDy=0;entryPerimeter=0;endArrow=none;endFill=0;" parent="P0ja4m1GKOgg7Rop0Mvm-1" source="P0ja4m1GKOgg7Rop0Mvm-137" target="P0ja4m1GKOgg7Rop0Mvm-37" edge="1">
          <mxGeometry relative="1" as="geometry">
            <mxPoint x="500" y="34.6099999999999" as="targetPoint" />
          </mxGeometry>
        </mxCell>
        <mxCell id="P0ja4m1GKOgg7Rop0Mvm-137" value="remoteEntry" style="shape=providedRequiredInterface;html=1;verticalLabelPosition=bottom;" parent="P0ja4m1GKOgg7Rop0Mvm-1" vertex="1">
          <mxGeometry x="190" y="200" width="20" height="20" as="geometry" />
        </mxCell>
        <mxCell id="P0ja4m1GKOgg7Rop0Mvm-197" value="Boostrap" style="shape=providedRequiredInterface;html=1;verticalLabelPosition=bottom;direction=west;" parent="P0ja4m1GKOgg7Rop0Mvm-1" vertex="1">
          <mxGeometry x="190" y="340" width="20" height="20" as="geometry" />
        </mxCell>
        <mxCell id="P0ja4m1GKOgg7Rop0Mvm-199" style="edgeStyle=orthogonalEdgeStyle;rounded=0;orthogonalLoop=1;jettySize=auto;html=1;exitX=1;exitY=0.5;exitDx=0;exitDy=0;exitPerimeter=0;entryX=0.95;entryY=0.55;entryDx=0;entryDy=0;entryPerimeter=0;endArrow=none;endFill=0;" parent="P0ja4m1GKOgg7Rop0Mvm-1" source="P0ja4m1GKOgg7Rop0Mvm-197" target="P0ja4m1GKOgg7Rop0Mvm-198" edge="1">
          <mxGeometry relative="1" as="geometry">
            <mxPoint x="190" y="350" as="sourcePoint" />
            <mxPoint x="40" y="350.75" as="targetPoint" />
          </mxGeometry>
        </mxCell>
        <mxCell id="P0ja4m1GKOgg7Rop0Mvm-210" value="«Component»&lt;br&gt;&lt;b&gt;工程能力&lt;/b&gt;" style="html=1;verticalAlign=top;" parent="P0ja4m1GKOgg7Rop0Mvm-1" vertex="1">
          <mxGeometry x="20" y="-290" width="495" height="200" as="geometry" />
        </mxCell>
        <mxCell id="P0ja4m1GKOgg7Rop0Mvm-211" value="" style="shape=component;jettyWidth=8;jettyHeight=4;" parent="P0ja4m1GKOgg7Rop0Mvm-210" vertex="1">
          <mxGeometry x="1" width="20" height="20" relative="1" as="geometry">
            <mxPoint x="-27" y="7" as="offset" />
          </mxGeometry>
        </mxCell>
        <mxCell id="fyW6FbxkXhklxL_48_FK-13" value="«Component»&lt;br&gt;&lt;b&gt;Eslint/Stylelint&lt;/b&gt;" style="html=1;" parent="P0ja4m1GKOgg7Rop0Mvm-210" vertex="1">
          <mxGeometry x="20" y="60" width="140" height="60" as="geometry" />
        </mxCell>
        <mxCell id="fyW6FbxkXhklxL_48_FK-14" value="" style="shape=component;jettyWidth=8;jettyHeight=4;" parent="fyW6FbxkXhklxL_48_FK-13" vertex="1">
          <mxGeometry x="1" width="20" height="20" relative="1" as="geometry">
            <mxPoint x="-27" y="7" as="offset" />
          </mxGeometry>
        </mxCell>
        <mxCell id="fyW6FbxkXhklxL_48_FK-15" value="«Component»&lt;br&gt;&lt;b&gt;Babel&lt;/b&gt;" style="html=1;" parent="P0ja4m1GKOgg7Rop0Mvm-210" vertex="1">
          <mxGeometry x="180" y="60" width="140" height="60" as="geometry" />
        </mxCell>
        <mxCell id="fyW6FbxkXhklxL_48_FK-16" value="" style="shape=component;jettyWidth=8;jettyHeight=4;" parent="fyW6FbxkXhklxL_48_FK-15" vertex="1">
          <mxGeometry x="1" width="20" height="20" relative="1" as="geometry">
            <mxPoint x="-27" y="7" as="offset" />
          </mxGeometry>
        </mxCell>
        <mxCell id="fyW6FbxkXhklxL_48_FK-17" value="«Component»&lt;br&gt;&lt;b&gt;Codegen&lt;/b&gt;" style="html=1;" parent="P0ja4m1GKOgg7Rop0Mvm-210" vertex="1">
          <mxGeometry x="180" y="130" width="140" height="60" as="geometry" />
        </mxCell>
        <mxCell id="fyW6FbxkXhklxL_48_FK-18" value="" style="shape=component;jettyWidth=8;jettyHeight=4;" parent="fyW6FbxkXhklxL_48_FK-17" vertex="1">
          <mxGeometry x="1" width="20" height="20" relative="1" as="geometry">
            <mxPoint x="-27" y="7" as="offset" />
          </mxGeometry>
        </mxCell>
        <mxCell id="fyW6FbxkXhklxL_48_FK-19" value="«Component»&lt;br&gt;&lt;b&gt;TypeScript&lt;/b&gt;" style="html=1;" parent="P0ja4m1GKOgg7Rop0Mvm-210" vertex="1">
          <mxGeometry x="20" y="130" width="140" height="60" as="geometry" />
        </mxCell>
        <mxCell id="fyW6FbxkXhklxL_48_FK-20" value="" style="shape=component;jettyWidth=8;jettyHeight=4;" parent="fyW6FbxkXhklxL_48_FK-19" vertex="1">
          <mxGeometry x="1" width="20" height="20" relative="1" as="geometry">
            <mxPoint x="-27" y="7" as="offset" />
          </mxGeometry>
        </mxCell>
        <mxCell id="fyW6FbxkXhklxL_48_FK-21" value="«Component»&lt;br&gt;&lt;b&gt;Webpack&lt;/b&gt;" style="html=1;" parent="P0ja4m1GKOgg7Rop0Mvm-210" vertex="1">
          <mxGeometry x="340" y="60" width="140" height="60" as="geometry" />
        </mxCell>
        <mxCell id="fyW6FbxkXhklxL_48_FK-22" value="" style="shape=component;jettyWidth=8;jettyHeight=4;" parent="fyW6FbxkXhklxL_48_FK-21" vertex="1">
          <mxGeometry x="1" width="20" height="20" relative="1" as="geometry">
            <mxPoint x="-27" y="7" as="offset" />
          </mxGeometry>
        </mxCell>
        <mxCell id="uTpkXc_pbzOPR-OZeIzC-16" style="edgeStyle=orthogonalEdgeStyle;rounded=0;orthogonalLoop=1;jettySize=auto;html=1;endArrow=none;endFill=0;" parent="P0ja4m1GKOgg7Rop0Mvm-1" source="_i9oU_zUnFVyXfJFAMEZ-74" target="P0ja4m1GKOgg7Rop0Mvm-132" edge="1">
          <mxGeometry relative="1" as="geometry" />
        </mxCell>
        <mxCell id="uTpkXc_pbzOPR-OZeIzC-17" style="edgeStyle=orthogonalEdgeStyle;rounded=0;orthogonalLoop=1;jettySize=auto;html=1;endArrow=none;endFill=0;" parent="P0ja4m1GKOgg7Rop0Mvm-1" source="_i9oU_zUnFVyXfJFAMEZ-74" target="P0ja4m1GKOgg7Rop0Mvm-24" edge="1">
          <mxGeometry relative="1" as="geometry" />
        </mxCell>
        <mxCell id="_i9oU_zUnFVyXfJFAMEZ-74" value="«Component»&lt;br&gt;&lt;b&gt;ShareLib&lt;/b&gt;" style="html=1;verticalAlign=top;" parent="P0ja4m1GKOgg7Rop0Mvm-1" vertex="1">
          <mxGeometry x="-535" y="-440" width="360" height="270" as="geometry" />
        </mxCell>
        <mxCell id="_i9oU_zUnFVyXfJFAMEZ-75" value="" style="shape=component;jettyWidth=8;jettyHeight=4;" parent="_i9oU_zUnFVyXfJFAMEZ-74" vertex="1">
          <mxGeometry x="1" width="20" height="20" relative="1" as="geometry">
            <mxPoint x="-27" y="7" as="offset" />
          </mxGeometry>
        </mxCell>
        <mxCell id="_i9oU_zUnFVyXfJFAMEZ-76" value="vue" style="shape=folder;fontStyle=1;spacingTop=10;tabWidth=40;tabHeight=14;tabPosition=left;html=1;" parent="_i9oU_zUnFVyXfJFAMEZ-74" vertex="1">
          <mxGeometry x="50" y="67" width="70" height="50" as="geometry" />
        </mxCell>
        <mxCell id="_i9oU_zUnFVyXfJFAMEZ-77" value="vuex" style="shape=folder;fontStyle=1;spacingTop=10;tabWidth=40;tabHeight=14;tabPosition=left;html=1;" parent="_i9oU_zUnFVyXfJFAMEZ-74" vertex="1">
          <mxGeometry x="145" y="67" width="70" height="50" as="geometry" />
        </mxCell>
        <mxCell id="_i9oU_zUnFVyXfJFAMEZ-78" value="vue-router" style="shape=folder;fontStyle=1;spacingTop=10;tabWidth=40;tabHeight=14;tabPosition=left;html=1;" parent="_i9oU_zUnFVyXfJFAMEZ-74" vertex="1">
          <mxGeometry x="250" y="67" width="70" height="50" as="geometry" />
        </mxCell>
        <mxCell id="_i9oU_zUnFVyXfJFAMEZ-88" value="axios" style="shape=folder;fontStyle=1;spacingTop=10;tabWidth=40;tabHeight=14;tabPosition=left;html=1;" parent="_i9oU_zUnFVyXfJFAMEZ-74" vertex="1">
          <mxGeometry x="50" y="137" width="70" height="50" as="geometry" />
        </mxCell>
        <mxCell id="_i9oU_zUnFVyXfJFAMEZ-91" value="element-ui" style="shape=folder;fontStyle=1;spacingTop=10;tabWidth=40;tabHeight=14;tabPosition=left;html=1;" parent="_i9oU_zUnFVyXfJFAMEZ-74" vertex="1">
          <mxGeometry x="145" y="137" width="70" height="50" as="geometry" />
        </mxCell>
        <mxCell id="uTpkXc_pbzOPR-OZeIzC-29" value="lottie-web" style="shape=folder;fontStyle=1;spacingTop=10;tabWidth=40;tabHeight=14;tabPosition=left;html=1;" parent="_i9oU_zUnFVyXfJFAMEZ-74" vertex="1">
          <mxGeometry x="250" y="137" width="70" height="50" as="geometry" />
        </mxCell>
        <mxCell id="uTpkXc_pbzOPR-OZeIzC-30" value="lodash-es" style="shape=folder;fontStyle=1;spacingTop=10;tabWidth=40;tabHeight=14;tabPosition=left;html=1;" parent="_i9oU_zUnFVyXfJFAMEZ-74" vertex="1">
          <mxGeometry x="50" y="210" width="70" height="50" as="geometry" />
        </mxCell>
        <mxCell id="HXtS7eYUlpfFKkpnauk8-2" value="工程能力" style="shape=folder;fontStyle=1;spacingTop=10;tabWidth=40;tabHeight=14;tabPosition=left;html=1;" vertex="1" parent="_i9oU_zUnFVyXfJFAMEZ-74">
          <mxGeometry x="250" y="210" width="70" height="50" as="geometry" />
        </mxCell>
        <mxCell id="uTpkXc_pbzOPR-OZeIzC-18" value="其他若干子应用略" style="shape=note;whiteSpace=wrap;html=1;size=14;verticalAlign=middle;align=left;spacingTop=-6;" parent="P0ja4m1GKOgg7Rop0Mvm-1" vertex="1">
          <mxGeometry x="473" y="680" width="100" height="70" as="geometry" />
        </mxCell>
        <mxCell id="uTpkXc_pbzOPR-OZeIzC-20" value="" style="endArrow=none;dashed=1;html=1;" parent="P0ja4m1GKOgg7Rop0Mvm-1" source="uTpkXc_pbzOPR-OZeIzC-18" target="P0ja4m1GKOgg7Rop0Mvm-24" edge="1">
          <mxGeometry width="50" height="50" relative="1" as="geometry">
            <mxPoint x="523" y="659.2893218813452" as="sourcePoint" />
            <mxPoint x="523" y="609.2893218813452" as="targetPoint" />
          </mxGeometry>
        </mxCell>
        <mxCell id="P0ja4m1GKOgg7Rop0Mvm-198" value="" style="strokeColor=inherit;fillColor=inherit;gradientColor=inherit;shape=rect;points=[[0,0.5,0]];html=1;resizable=1;align=right;verticalAlign=bottom;labelPosition=left;verticalLabelPosition=top;labelBackgroundColor=none;fontSize=10;paart=1;" parent="P0ja4m1GKOgg7Rop0Mvm-1" vertex="1">
          <mxGeometry x="30.00434782608704" y="340.0000000000003" width="20" height="20" as="geometry" />
        </mxCell>
        <mxCell id="_i9oU_zUnFVyXfJFAMEZ-22" style="edgeStyle=orthogonalEdgeStyle;rounded=0;orthogonalLoop=1;jettySize=auto;html=1;endArrow=none;endFill=0;" parent="P0ja4m1GKOgg7Rop0Mvm-1" source="P0ja4m1GKOgg7Rop0Mvm-198" target="_i9oU_zUnFVyXfJFAMEZ-20" edge="1">
          <mxGeometry relative="1" as="geometry">
            <mxPoint x="-30" y="350" as="sourcePoint" />
            <mxPoint x="-920" y="278.50000000000045" as="targetPoint" />
          </mxGeometry>
        </mxCell>
        <mxCell id="fyW6FbxkXhklxL_48_FK-10" value="用来支撑子应用单独运行的必备内容" style="shape=note;whiteSpace=wrap;html=1;size=14;verticalAlign=middle;align=left;spacingTop=-6;" parent="P0ja4m1GKOgg7Rop0Mvm-1" vertex="1">
          <mxGeometry x="80" y="90" width="100" height="70" as="geometry" />
        </mxCell>
        <mxCell id="fyW6FbxkXhklxL_48_FK-8" value="" style="endArrow=none;dashed=1;html=1;" parent="P0ja4m1GKOgg7Rop0Mvm-1" source="_i9oU_zUnFVyXfJFAMEZ-81" target="fyW6FbxkXhklxL_48_FK-10" edge="1">
          <mxGeometry width="50" height="50" relative="1" as="geometry">
            <mxPoint x="610" y="230.78932188134524" as="sourcePoint" />
            <mxPoint x="100" y="140" as="targetPoint" />
          </mxGeometry>
        </mxCell>
        <mxCell id="HXtS7eYUlpfFKkpnauk8-3" style="edgeStyle=orthogonalEdgeStyle;rounded=0;orthogonalLoop=1;jettySize=auto;html=1;entryX=-0.004;entryY=0.425;entryDx=0;entryDy=0;entryPerimeter=0;endArrow=none;endFill=0;" edge="1" parent="P0ja4m1GKOgg7Rop0Mvm-1" source="HXtS7eYUlpfFKkpnauk8-2" target="P0ja4m1GKOgg7Rop0Mvm-210">
          <mxGeometry relative="1" as="geometry" />
        </mxCell>
      </root>
    </mxGraphModel>
  </diagram>
  <diagram id="Ui_IfbqZ0W3iYWC_exAL" name="部署图">
    <mxGraphModel dx="2249" dy="706" grid="1" gridSize="10" guides="1" tooltips="1" connect="1" arrows="1" fold="1" page="1" pageScale="1" pageWidth="827" pageHeight="1169" math="0" shadow="0">
      <root>
        <mxCell id="BLpBGiV7nPK1Z3vFD1by-0" />
        <mxCell id="BLpBGiV7nPK1Z3vFD1by-1" parent="BLpBGiV7nPK1Z3vFD1by-0" />
        <mxCell id="98P6yDCJP_0K-gnhn4LX-15" value="Web Server" style="verticalAlign=top;align=left;spacingTop=8;spacingLeft=2;spacingRight=12;shape=cube;size=10;direction=south;fontStyle=4;html=1;" parent="BLpBGiV7nPK1Z3vFD1by-1" vertex="1">
          <mxGeometry x="-100" y="410" width="590" height="450" as="geometry" />
        </mxCell>
        <mxCell id="98P6yDCJP_0K-gnhn4LX-6" value="" style="edgeStyle=orthogonalEdgeStyle;rounded=0;orthogonalLoop=1;jettySize=auto;html=1;endArrow=openThin;endFill=0;" parent="BLpBGiV7nPK1Z3vFD1by-1" source="98P6yDCJP_0K-gnhn4LX-0" target="98P6yDCJP_0K-gnhn4LX-7" edge="1">
          <mxGeometry relative="1" as="geometry">
            <mxPoint x="-90" y="240" as="targetPoint" />
          </mxGeometry>
        </mxCell>
        <mxCell id="98P6yDCJP_0K-gnhn4LX-0" value="开发" style="shape=umlActor;verticalLabelPosition=bottom;labelBackgroundColor=#ffffff;verticalAlign=top;html=1;" parent="BLpBGiV7nPK1Z3vFD1by-1" vertex="1">
          <mxGeometry x="-200" y="210" width="30" height="60" as="geometry" />
        </mxCell>
        <mxCell id="98P6yDCJP_0K-gnhn4LX-9" value="" style="edgeStyle=orthogonalEdgeStyle;rounded=0;orthogonalLoop=1;jettySize=auto;html=1;endArrow=openThin;endFill=0;" parent="BLpBGiV7nPK1Z3vFD1by-1" source="98P6yDCJP_0K-gnhn4LX-7" target="98P6yDCJP_0K-gnhn4LX-8" edge="1">
          <mxGeometry relative="1" as="geometry" />
        </mxCell>
        <mxCell id="98P6yDCJP_0K-gnhn4LX-7" value="修改某个app代码" style="html=1;" parent="BLpBGiV7nPK1Z3vFD1by-1" vertex="1">
          <mxGeometry x="-60" y="215" width="110" height="50" as="geometry" />
        </mxCell>
        <mxCell id="98P6yDCJP_0K-gnhn4LX-11" value="" style="edgeStyle=orthogonalEdgeStyle;rounded=0;orthogonalLoop=1;jettySize=auto;html=1;endArrow=openThin;endFill=0;" parent="BLpBGiV7nPK1Z3vFD1by-1" source="98P6yDCJP_0K-gnhn4LX-8" target="98P6yDCJP_0K-gnhn4LX-10" edge="1">
          <mxGeometry relative="1" as="geometry" />
        </mxCell>
        <mxCell id="98P6yDCJP_0K-gnhn4LX-8" value="千流构建" style="html=1;" parent="BLpBGiV7nPK1Z3vFD1by-1" vertex="1">
          <mxGeometry x="130" y="215" width="110" height="50" as="geometry" />
        </mxCell>
        <mxCell id="98P6yDCJP_0K-gnhn4LX-13" value="" style="edgeStyle=orthogonalEdgeStyle;rounded=0;orthogonalLoop=1;jettySize=auto;html=1;endArrow=openThin;endFill=0;" parent="BLpBGiV7nPK1Z3vFD1by-1" source="98P6yDCJP_0K-gnhn4LX-10" target="98P6yDCJP_0K-gnhn4LX-12" edge="1">
          <mxGeometry relative="1" as="geometry" />
        </mxCell>
        <mxCell id="98P6yDCJP_0K-gnhn4LX-14" value="推送镜像" style="text;html=1;align=center;verticalAlign=middle;resizable=0;points=[];labelBackgroundColor=#ffffff;" parent="98P6yDCJP_0K-gnhn4LX-13" vertex="1" connectable="0">
          <mxGeometry x="-0.2757" y="4" relative="1" as="geometry">
            <mxPoint as="offset" />
          </mxGeometry>
        </mxCell>
        <mxCell id="98P6yDCJP_0K-gnhn4LX-10" value="app 包" style="ellipse;whiteSpace=wrap;html=1;fontFamily=Helvetica;fontSize=12;fontColor=#000000;align=center;strokeColor=#000000;fillColor=#ffffff;" parent="BLpBGiV7nPK1Z3vFD1by-1" vertex="1">
          <mxGeometry x="320" y="215" width="110" height="50" as="geometry" />
        </mxCell>
        <mxCell id="98P6yDCJP_0K-gnhn4LX-29" style="edgeStyle=orthogonalEdgeStyle;rounded=0;orthogonalLoop=1;jettySize=auto;html=1;entryX=1;entryY=0.5;entryDx=0;entryDy=0;endArrow=openThin;endFill=0;exitX=0.5;exitY=1;exitDx=0;exitDy=0;" parent="BLpBGiV7nPK1Z3vFD1by-1" source="98P6yDCJP_0K-gnhn4LX-12" target="98P6yDCJP_0K-gnhn4LX-17" edge="1">
          <mxGeometry relative="1" as="geometry" />
        </mxCell>
        <mxCell id="98P6yDCJP_0K-gnhn4LX-30" style="edgeStyle=orthogonalEdgeStyle;rounded=0;orthogonalLoop=1;jettySize=auto;html=1;entryX=1;entryY=0.5;entryDx=0;entryDy=0;endArrow=openThin;endFill=0;exitX=0.5;exitY=1;exitDx=0;exitDy=0;" parent="BLpBGiV7nPK1Z3vFD1by-1" source="98P6yDCJP_0K-gnhn4LX-12" target="98P6yDCJP_0K-gnhn4LX-26" edge="1">
          <mxGeometry relative="1" as="geometry" />
        </mxCell>
        <mxCell id="98P6yDCJP_0K-gnhn4LX-31" style="edgeStyle=orthogonalEdgeStyle;rounded=0;orthogonalLoop=1;jettySize=auto;html=1;entryX=1;entryY=0.5;entryDx=0;entryDy=0;endArrow=openThin;endFill=0;exitX=0.5;exitY=1;exitDx=0;exitDy=0;" parent="BLpBGiV7nPK1Z3vFD1by-1" source="98P6yDCJP_0K-gnhn4LX-12" target="98P6yDCJP_0K-gnhn4LX-27" edge="1">
          <mxGeometry relative="1" as="geometry" />
        </mxCell>
        <mxCell id="98P6yDCJP_0K-gnhn4LX-12" value="制品库" style="shape=partialRectangle;whiteSpace=wrap;html=1;left=0;right=0;fillColor=#ffffff;fontFamily=Helvetica;fontSize=12;fontColor=#000000;align=center;strokeColor=#000000;" parent="BLpBGiV7nPK1Z3vFD1by-1" vertex="1">
          <mxGeometry x="470" y="320" width="110" height="50" as="geometry" />
        </mxCell>
        <mxCell id="98P6yDCJP_0K-gnhn4LX-16" value="控制面容器" style="shape=component;align=left;spacingLeft=36;" parent="BLpBGiV7nPK1Z3vFD1by-1" vertex="1">
          <mxGeometry x="320" y="473" width="120" height="60" as="geometry" />
        </mxCell>
        <mxCell id="98P6yDCJP_0K-gnhn4LX-17" value="数据面容器" style="shape=component;align=left;spacingLeft=36;" parent="BLpBGiV7nPK1Z3vFD1by-1" vertex="1">
          <mxGeometry x="320" y="562" width="120" height="60" as="geometry" />
        </mxCell>
        <mxCell id="98P6yDCJP_0K-gnhn4LX-20" value="" style="edgeStyle=orthogonalEdgeStyle;rounded=0;orthogonalLoop=1;jettySize=auto;html=1;endArrow=openThin;endFill=0;" parent="BLpBGiV7nPK1Z3vFD1by-1" source="mnxelnOjXiZFDYNyj2Ca-2" target="BDsB1E4RuU3Q_Iu1d_fx-0" edge="1">
          <mxGeometry relative="1" as="geometry">
            <mxPoint x="110" y="460" as="targetPoint" />
          </mxGeometry>
        </mxCell>
        <mxCell id="98P6yDCJP_0K-gnhn4LX-18" value="用户" style="shape=umlActor;verticalLabelPosition=bottom;labelBackgroundColor=#ffffff;verticalAlign=top;html=1;" parent="BLpBGiV7nPK1Z3vFD1by-1" vertex="1">
          <mxGeometry x="-720" y="575" width="30" height="60" as="geometry" />
        </mxCell>
        <mxCell id="98P6yDCJP_0K-gnhn4LX-25" style="edgeStyle=orthogonalEdgeStyle;rounded=0;orthogonalLoop=1;jettySize=auto;html=1;endArrow=openThin;endFill=0;exitX=0.5;exitY=1;exitDx=0;exitDy=0;entryX=1;entryY=0.5;entryDx=0;entryDy=0;" parent="BLpBGiV7nPK1Z3vFD1by-1" source="98P6yDCJP_0K-gnhn4LX-12" target="98P6yDCJP_0K-gnhn4LX-16" edge="1">
          <mxGeometry relative="1" as="geometry" />
        </mxCell>
        <mxCell id="98P6yDCJP_0K-gnhn4LX-28" value="部署" style="text;html=1;align=center;verticalAlign=middle;resizable=0;points=[];labelBackgroundColor=#ffffff;" parent="98P6yDCJP_0K-gnhn4LX-25" vertex="1" connectable="0">
          <mxGeometry x="-0.6014" y="1" relative="1" as="geometry">
            <mxPoint as="offset" />
          </mxGeometry>
        </mxCell>
        <mxCell id="98P6yDCJP_0K-gnhn4LX-26" value="认证组容器" style="shape=component;align=left;spacingLeft=36;" parent="BLpBGiV7nPK1Z3vFD1by-1" vertex="1">
          <mxGeometry x="320" y="657" width="120" height="60" as="geometry" />
        </mxCell>
        <mxCell id="98P6yDCJP_0K-gnhn4LX-27" value="其他应用容器" style="shape=component;align=left;spacingLeft=36;" parent="BLpBGiV7nPK1Z3vFD1by-1" vertex="1">
          <mxGeometry x="320" y="757" width="120" height="60" as="geometry" />
        </mxCell>
        <mxCell id="mnxelnOjXiZFDYNyj2Ca-7" style="edgeStyle=orthogonalEdgeStyle;rounded=0;orthogonalLoop=1;jettySize=auto;html=1;endArrow=openThin;endFill=0;" parent="BLpBGiV7nPK1Z3vFD1by-1" source="98P6yDCJP_0K-gnhn4LX-32" target="mnxelnOjXiZFDYNyj2Ca-6" edge="1">
          <mxGeometry relative="1" as="geometry" />
        </mxCell>
        <mxCell id="QzmSIeC0IFFqL6GZFE-F-0" style="edgeStyle=orthogonalEdgeStyle;rounded=0;orthogonalLoop=1;jettySize=auto;html=1;entryX=0;entryY=0.5;entryDx=0;entryDy=0;endArrow=openThin;endFill=0;" parent="BLpBGiV7nPK1Z3vFD1by-1" source="98P6yDCJP_0K-gnhn4LX-32" target="98P6yDCJP_0K-gnhn4LX-36" edge="1">
          <mxGeometry relative="1" as="geometry" />
        </mxCell>
        <mxCell id="QzmSIeC0IFFqL6GZFE-F-1" style="edgeStyle=orthogonalEdgeStyle;rounded=0;orthogonalLoop=1;jettySize=auto;html=1;entryX=0;entryY=0.5;entryDx=0;entryDy=0;endArrow=openThin;endFill=0;" parent="BLpBGiV7nPK1Z3vFD1by-1" source="98P6yDCJP_0K-gnhn4LX-32" target="98P6yDCJP_0K-gnhn4LX-35" edge="1">
          <mxGeometry relative="1" as="geometry" />
        </mxCell>
        <mxCell id="QzmSIeC0IFFqL6GZFE-F-2" style="edgeStyle=orthogonalEdgeStyle;rounded=0;orthogonalLoop=1;jettySize=auto;html=1;entryX=0;entryY=0.5;entryDx=0;entryDy=0;endArrow=openThin;endFill=0;" parent="BLpBGiV7nPK1Z3vFD1by-1" source="98P6yDCJP_0K-gnhn4LX-32" target="98P6yDCJP_0K-gnhn4LX-34" edge="1">
          <mxGeometry relative="1" as="geometry" />
        </mxCell>
        <mxCell id="QzmSIeC0IFFqL6GZFE-F-3" style="edgeStyle=orthogonalEdgeStyle;rounded=0;orthogonalLoop=1;jettySize=auto;html=1;entryX=0;entryY=0.5;entryDx=0;entryDy=0;endArrow=openThin;endFill=0;" parent="BLpBGiV7nPK1Z3vFD1by-1" source="98P6yDCJP_0K-gnhn4LX-32" target="98P6yDCJP_0K-gnhn4LX-33" edge="1">
          <mxGeometry relative="1" as="geometry" />
        </mxCell>
        <mxCell id="QzmSIeC0IFFqL6GZFE-F-14" value="加载" style="text;html=1;align=center;verticalAlign=middle;resizable=0;points=[];labelBackgroundColor=#ffffff;" parent="QzmSIeC0IFFqL6GZFE-F-3" vertex="1" connectable="0">
          <mxGeometry x="-0.6942" relative="1" as="geometry">
            <mxPoint as="offset" />
          </mxGeometry>
        </mxCell>
        <mxCell id="98P6yDCJP_0K-gnhn4LX-32" value="基座容器" style="shape=component;align=left;spacingLeft=36;" parent="BLpBGiV7nPK1Z3vFD1by-1" vertex="1">
          <mxGeometry x="-30" y="645" width="120" height="60" as="geometry" />
        </mxCell>
        <mxCell id="mnxelnOjXiZFDYNyj2Ca-0" value="平台" style="strokeWidth=1;shadow=0;dashed=0;align=center;html=1;shape=mxgraph.mockup.containers.browserWindow;rSize=0;strokeColor=#666666;strokeColor2=#008cff;strokeColor3=#c4c4c4;mainText=,;recursiveResize=0;" parent="BLpBGiV7nPK1Z3vFD1by-1" vertex="1">
          <mxGeometry x="-570" y="465" width="370" height="280" as="geometry" />
        </mxCell>
        <mxCell id="mnxelnOjXiZFDYNyj2Ca-1" value="Loading" style="strokeWidth=1;shadow=0;dashed=0;align=center;html=1;shape=mxgraph.mockup.containers.anchor;fontSize=17;fontColor=#666666;align=left;" parent="mnxelnOjXiZFDYNyj2Ca-0" vertex="1">
          <mxGeometry x="60" y="12" width="110" height="26" as="geometry" />
        </mxCell>
        <mxCell id="mnxelnOjXiZFDYNyj2Ca-2" value="https://platform.com.cn" style="strokeWidth=1;shadow=0;dashed=0;align=center;html=1;shape=mxgraph.mockup.containers.anchor;rSize=0;fontSize=17;fontColor=#666666;align=left;" parent="mnxelnOjXiZFDYNyj2Ca-0" vertex="1">
          <mxGeometry x="130" y="60" width="220" height="26" as="geometry" />
        </mxCell>
        <mxCell id="mnxelnOjXiZFDYNyj2Ca-4" value="" style="edgeStyle=orthogonalEdgeStyle;rounded=0;orthogonalLoop=1;jettySize=auto;html=1;endArrow=openThin;endFill=0;" parent="BLpBGiV7nPK1Z3vFD1by-1" source="98P6yDCJP_0K-gnhn4LX-18" target="mnxelnOjXiZFDYNyj2Ca-0" edge="1">
          <mxGeometry relative="1" as="geometry">
            <mxPoint x="-580" y="605" as="sourcePoint" />
            <mxPoint x="-90" y="605" as="targetPoint" />
          </mxGeometry>
        </mxCell>
        <mxCell id="mnxelnOjXiZFDYNyj2Ca-5" value="访问" style="text;html=1;align=center;verticalAlign=middle;resizable=0;points=[];labelBackgroundColor=#ffffff;" parent="mnxelnOjXiZFDYNyj2Ca-4" vertex="1" connectable="0">
          <mxGeometry x="-0.3294" y="4" relative="1" as="geometry">
            <mxPoint as="offset" />
          </mxGeometry>
        </mxCell>
        <mxCell id="QzmSIeC0IFFqL6GZFE-F-21" style="edgeStyle=orthogonalEdgeStyle;rounded=0;orthogonalLoop=1;jettySize=auto;html=1;endArrow=openThin;endFill=0;exitX=0;exitY=0.5;exitDx=0;exitDy=0;" parent="BLpBGiV7nPK1Z3vFD1by-1" source="mnxelnOjXiZFDYNyj2Ca-6" target="mnxelnOjXiZFDYNyj2Ca-0" edge="1">
          <mxGeometry relative="1" as="geometry">
            <Array as="points">
              <mxPoint x="20" y="720" />
            </Array>
          </mxGeometry>
        </mxCell>
        <mxCell id="QzmSIeC0IFFqL6GZFE-F-9" value="" style="group" parent="BLpBGiV7nPK1Z3vFD1by-1" vertex="1" connectable="0">
          <mxGeometry x="187.5" y="493" width="115" height="40" as="geometry" />
        </mxCell>
        <mxCell id="98P6yDCJP_0K-gnhn4LX-33" value="" style="ellipse;whiteSpace=wrap;html=1;aspect=fixed;" parent="QzmSIeC0IFFqL6GZFE-F-9" vertex="1">
          <mxGeometry x="47.5" width="20" height="20" as="geometry" />
        </mxCell>
        <mxCell id="QzmSIeC0IFFqL6GZFE-F-5" value="control/remoteEntry.js" style="text;html=1;strokeColor=none;fillColor=none;align=center;verticalAlign=middle;whiteSpace=wrap;rounded=0;" parent="QzmSIeC0IFFqL6GZFE-F-9" vertex="1">
          <mxGeometry y="20" width="115" height="20" as="geometry" />
        </mxCell>
        <mxCell id="QzmSIeC0IFFqL6GZFE-F-11" value="" style="group" parent="BLpBGiV7nPK1Z3vFD1by-1" vertex="1" connectable="0">
          <mxGeometry x="187.5" y="582" width="115" height="40" as="geometry" />
        </mxCell>
        <mxCell id="98P6yDCJP_0K-gnhn4LX-34" value="" style="ellipse;whiteSpace=wrap;html=1;aspect=fixed;" parent="QzmSIeC0IFFqL6GZFE-F-11" vertex="1">
          <mxGeometry x="47.5" width="20" height="20" as="geometry" />
        </mxCell>
        <mxCell id="QzmSIeC0IFFqL6GZFE-F-6" value="data/remoteEntry.js" style="text;html=1;strokeColor=none;fillColor=none;align=center;verticalAlign=middle;whiteSpace=wrap;rounded=0;" parent="QzmSIeC0IFFqL6GZFE-F-11" vertex="1">
          <mxGeometry y="20" width="115" height="20" as="geometry" />
        </mxCell>
        <mxCell id="QzmSIeC0IFFqL6GZFE-F-12" value="" style="group" parent="BLpBGiV7nPK1Z3vFD1by-1" vertex="1" connectable="0">
          <mxGeometry x="187.5" y="777" width="115" height="40" as="geometry" />
        </mxCell>
        <mxCell id="98P6yDCJP_0K-gnhn4LX-36" value="" style="ellipse;whiteSpace=wrap;html=1;aspect=fixed;" parent="QzmSIeC0IFFqL6GZFE-F-12" vertex="1">
          <mxGeometry x="47.5" width="20" height="20" as="geometry" />
        </mxCell>
        <mxCell id="QzmSIeC0IFFqL6GZFE-F-8" value="app/remoteEntry.js" style="text;html=1;strokeColor=none;fillColor=none;align=center;verticalAlign=middle;whiteSpace=wrap;rounded=0;" parent="QzmSIeC0IFFqL6GZFE-F-12" vertex="1">
          <mxGeometry y="20" width="115" height="20" as="geometry" />
        </mxCell>
        <mxCell id="QzmSIeC0IFFqL6GZFE-F-13" value="" style="group" parent="BLpBGiV7nPK1Z3vFD1by-1" vertex="1" connectable="0">
          <mxGeometry x="187.5" y="677" width="115" height="40" as="geometry" />
        </mxCell>
        <mxCell id="98P6yDCJP_0K-gnhn4LX-35" value="" style="ellipse;whiteSpace=wrap;html=1;aspect=fixed;" parent="QzmSIeC0IFFqL6GZFE-F-13" vertex="1">
          <mxGeometry x="47.5" width="20" height="20" as="geometry" />
        </mxCell>
        <mxCell id="QzmSIeC0IFFqL6GZFE-F-7" value="cert/remoteEntry.js" style="text;html=1;strokeColor=none;fillColor=none;align=center;verticalAlign=middle;whiteSpace=wrap;rounded=0;" parent="QzmSIeC0IFFqL6GZFE-F-13" vertex="1">
          <mxGeometry y="20" width="115" height="20" as="geometry" />
        </mxCell>
        <mxCell id="QzmSIeC0IFFqL6GZFE-F-18" style="edgeStyle=orthogonalEdgeStyle;rounded=0;orthogonalLoop=1;jettySize=auto;html=1;endArrow=openThin;endFill=0;entryX=1;entryY=0.5;entryDx=0;entryDy=0;" parent="BLpBGiV7nPK1Z3vFD1by-1" source="98P6yDCJP_0K-gnhn4LX-26" target="98P6yDCJP_0K-gnhn4LX-35" edge="1">
          <mxGeometry relative="1" as="geometry">
            <mxPoint x="270" y="677" as="targetPoint" />
          </mxGeometry>
        </mxCell>
        <mxCell id="QzmSIeC0IFFqL6GZFE-F-25" value="" style="group" parent="BLpBGiV7nPK1Z3vFD1by-1" vertex="1" connectable="0">
          <mxGeometry x="10" y="745" width="40" height="40" as="geometry" />
        </mxCell>
        <mxCell id="mnxelnOjXiZFDYNyj2Ca-6" value="" style="ellipse;whiteSpace=wrap;html=1;aspect=fixed;" parent="QzmSIeC0IFFqL6GZFE-F-25" vertex="1">
          <mxGeometry x="10" width="20" height="20" as="geometry" />
        </mxCell>
        <mxCell id="QzmSIeC0IFFqL6GZFE-F-22" value="index.html" style="text;html=1;strokeColor=none;fillColor=none;align=center;verticalAlign=middle;whiteSpace=wrap;rounded=0;" parent="QzmSIeC0IFFqL6GZFE-F-25" vertex="1">
          <mxGeometry y="20" width="40" height="20" as="geometry" />
        </mxCell>
        <mxCell id="snQscqraF8DjUSX5K2-_-0" style="edgeStyle=orthogonalEdgeStyle;rounded=0;orthogonalLoop=1;jettySize=auto;html=1;" parent="BLpBGiV7nPK1Z3vFD1by-1" source="BDsB1E4RuU3Q_Iu1d_fx-0" target="98P6yDCJP_0K-gnhn4LX-32" edge="1">
          <mxGeometry relative="1" as="geometry" />
        </mxCell>
        <mxCell id="BDsB1E4RuU3Q_Iu1d_fx-0" value="Nginx" style="shape=hexagon;perimeter=hexagonPerimeter2;whiteSpace=wrap;html=1;rotation=0;direction=south;" parent="BLpBGiV7nPK1Z3vFD1by-1" vertex="1">
          <mxGeometry x="-10" y="494" width="80" height="88" as="geometry" />
        </mxCell>
        <mxCell id="QzmSIeC0IFFqL6GZFE-F-17" style="edgeStyle=orthogonalEdgeStyle;rounded=0;orthogonalLoop=1;jettySize=auto;html=1;endArrow=openThin;endFill=0;" parent="BLpBGiV7nPK1Z3vFD1by-1" source="98P6yDCJP_0K-gnhn4LX-17" target="98P6yDCJP_0K-gnhn4LX-34" edge="1">
          <mxGeometry relative="1" as="geometry" />
        </mxCell>
        <mxCell id="snQscqraF8DjUSX5K2-_-1" style="edgeStyle=orthogonalEdgeStyle;rounded=0;orthogonalLoop=1;jettySize=auto;html=1;endArrow=openThin;endFill=0;entryX=1;entryY=0.5;entryDx=0;entryDy=0;" parent="BLpBGiV7nPK1Z3vFD1by-1" source="98P6yDCJP_0K-gnhn4LX-16" target="98P6yDCJP_0K-gnhn4LX-33" edge="1">
          <mxGeometry relative="1" as="geometry">
            <mxPoint x="330" y="602" as="sourcePoint" />
            <mxPoint x="265" y="602" as="targetPoint" />
          </mxGeometry>
        </mxCell>
        <mxCell id="QzmSIeC0IFFqL6GZFE-F-19" style="edgeStyle=orthogonalEdgeStyle;rounded=0;orthogonalLoop=1;jettySize=auto;html=1;endArrow=openThin;endFill=0;entryX=1;entryY=0.5;entryDx=0;entryDy=0;" parent="BLpBGiV7nPK1Z3vFD1by-1" source="98P6yDCJP_0K-gnhn4LX-27" target="98P6yDCJP_0K-gnhn4LX-36" edge="1">
          <mxGeometry relative="1" as="geometry" />
        </mxCell>
      </root>
    </mxGraphModel>
  </diagram>
  <diagram id="Aqddh8U13mh-_7fVtZlr" name="快速选型">
    <mxGraphModel dx="1086" dy="806" grid="1" gridSize="10" guides="1" tooltips="1" connect="1" arrows="1" fold="1" page="1" pageScale="1" pageWidth="827" pageHeight="1169" math="0" shadow="0">
      <root>
        <mxCell id="0" />
        <mxCell id="1" parent="0" />
        <mxCell id="csilXPxzsDW-3RmqhbRa-12" style="edgeStyle=orthogonalEdgeStyle;rounded=0;orthogonalLoop=1;jettySize=auto;html=1;" parent="1" source="csilXPxzsDW-3RmqhbRa-1" target="csilXPxzsDW-3RmqhbRa-11" edge="1">
          <mxGeometry relative="1" as="geometry" />
        </mxCell>
        <mxCell id="csilXPxzsDW-3RmqhbRa-1" value="微服务：快速选型" style="rounded=1;whiteSpace=wrap;html=1;" parent="1" vertex="1">
          <mxGeometry x="120" y="330" width="120" height="60" as="geometry" />
        </mxCell>
        <mxCell id="csilXPxzsDW-3RmqhbRa-14" value="" style="rounded=0;orthogonalLoop=1;jettySize=auto;html=1;fontSize=12;" parent="1" source="csilXPxzsDW-3RmqhbRa-11" target="csilXPxzsDW-3RmqhbRa-13" edge="1">
          <mxGeometry relative="1" as="geometry">
            <mxPoint x="378.40408134293057" y="335.40408134293057" as="sourcePoint" />
          </mxGeometry>
        </mxCell>
        <mxCell id="csilXPxzsDW-3RmqhbRa-23" value="否" style="text;html=1;align=center;verticalAlign=middle;resizable=0;points=[];labelBackgroundColor=#ffffff;fontSize=12;" parent="csilXPxzsDW-3RmqhbRa-14" vertex="1" connectable="0">
          <mxGeometry x="0.2875" y="-5" relative="1" as="geometry">
            <mxPoint as="offset" />
          </mxGeometry>
        </mxCell>
        <mxCell id="csilXPxzsDW-3RmqhbRa-15" style="edgeStyle=none;rounded=0;orthogonalLoop=1;jettySize=auto;html=1;fontSize=12;" parent="1" source="csilXPxzsDW-3RmqhbRa-11" target="csilXPxzsDW-3RmqhbRa-16" edge="1">
          <mxGeometry relative="1" as="geometry">
            <mxPoint x="463" y="450" as="targetPoint" />
            <mxPoint x="383" y="380" as="sourcePoint" />
          </mxGeometry>
        </mxCell>
        <mxCell id="csilXPxzsDW-3RmqhbRa-24" value="是" style="text;html=1;align=center;verticalAlign=middle;resizable=0;points=[];labelBackgroundColor=#ffffff;fontSize=12;" parent="csilXPxzsDW-3RmqhbRa-15" vertex="1" connectable="0">
          <mxGeometry x="0.2373" y="3" relative="1" as="geometry">
            <mxPoint x="-19.011664586005963" as="offset" />
          </mxGeometry>
        </mxCell>
        <mxCell id="csilXPxzsDW-3RmqhbRa-11" value="框架不限？" style="rhombus;whiteSpace=wrap;html=1;fontSize=12;" parent="1" vertex="1">
          <mxGeometry x="307" y="320" width="80" height="80" as="geometry" />
        </mxCell>
        <mxCell id="csilXPxzsDW-3RmqhbRa-22" value="" style="edgeStyle=none;rounded=0;orthogonalLoop=1;jettySize=auto;html=1;fontSize=12;" parent="1" source="csilXPxzsDW-3RmqhbRa-13" target="csilXPxzsDW-3RmqhbRa-21" edge="1">
          <mxGeometry relative="1" as="geometry" />
        </mxCell>
        <mxCell id="Es7d4IAkhjPUTr1Keu-_-25" value="否" style="text;html=1;align=center;verticalAlign=middle;resizable=0;points=[];labelBackgroundColor=#ffffff;fontSize=12;" parent="csilXPxzsDW-3RmqhbRa-22" vertex="1" connectable="0">
          <mxGeometry x="-0.3837" y="-1" relative="1" as="geometry">
            <mxPoint as="offset" />
          </mxGeometry>
        </mxCell>
        <mxCell id="Es7d4IAkhjPUTr1Keu-_-13" style="edgeStyle=none;rounded=0;orthogonalLoop=1;jettySize=auto;html=1;" parent="1" source="csilXPxzsDW-3RmqhbRa-13" target="csilXPxzsDW-3RmqhbRa-30" edge="1">
          <mxGeometry relative="1" as="geometry" />
        </mxCell>
        <mxCell id="Es7d4IAkhjPUTr1Keu-_-14" value="是" style="text;html=1;align=center;verticalAlign=middle;resizable=0;points=[];labelBackgroundColor=#ffffff;fontSize=12;" parent="Es7d4IAkhjPUTr1Keu-_-13" vertex="1" connectable="0">
          <mxGeometry x="-0.3998" y="-1" relative="1" as="geometry">
            <mxPoint as="offset" />
          </mxGeometry>
        </mxCell>
        <mxCell id="csilXPxzsDW-3RmqhbRa-13" value="交付压力？" style="rhombus;whiteSpace=wrap;html=1;fontSize=12;" parent="1" vertex="1">
          <mxGeometry x="446.1543289325507" y="200" width="80" height="80" as="geometry" />
        </mxCell>
        <mxCell id="Es7d4IAkhjPUTr1Keu-_-9" style="rounded=0;orthogonalLoop=1;jettySize=auto;html=1;" parent="1" source="csilXPxzsDW-3RmqhbRa-21" target="csilXPxzsDW-3RmqhbRa-28" edge="1">
          <mxGeometry relative="1" as="geometry" />
        </mxCell>
        <mxCell id="Es7d4IAkhjPUTr1Keu-_-11" value="是" style="text;html=1;align=center;verticalAlign=middle;resizable=0;points=[];labelBackgroundColor=#ffffff;" parent="Es7d4IAkhjPUTr1Keu-_-9" vertex="1" connectable="0">
          <mxGeometry x="-0.2042" y="-1" relative="1" as="geometry">
            <mxPoint as="offset" />
          </mxGeometry>
        </mxCell>
        <mxCell id="Es7d4IAkhjPUTr1Keu-_-10" style="edgeStyle=none;rounded=0;orthogonalLoop=1;jettySize=auto;html=1;" parent="1" source="csilXPxzsDW-3RmqhbRa-21" target="csilXPxzsDW-3RmqhbRa-29" edge="1">
          <mxGeometry relative="1" as="geometry" />
        </mxCell>
        <mxCell id="Es7d4IAkhjPUTr1Keu-_-12" value="否" style="text;html=1;align=center;verticalAlign=middle;resizable=0;points=[];labelBackgroundColor=#ffffff;" parent="Es7d4IAkhjPUTr1Keu-_-10" vertex="1" connectable="0">
          <mxGeometry x="-0.4086" y="1" relative="1" as="geometry">
            <mxPoint as="offset" />
          </mxGeometry>
        </mxCell>
        <mxCell id="csilXPxzsDW-3RmqhbRa-21" value="依赖独立？" style="rhombus;whiteSpace=wrap;html=1;fontSize=12;" parent="1" vertex="1">
          <mxGeometry x="605.928507501154" y="110" width="80" height="80" as="geometry" />
        </mxCell>
        <mxCell id="csilXPxzsDW-3RmqhbRa-18" value="" style="edgeStyle=none;rounded=0;orthogonalLoop=1;jettySize=auto;html=1;fontSize=12;" parent="1" source="csilXPxzsDW-3RmqhbRa-16" target="csilXPxzsDW-3RmqhbRa-17" edge="1">
          <mxGeometry relative="1" as="geometry" />
        </mxCell>
        <mxCell id="Es7d4IAkhjPUTr1Keu-_-23" value="是" style="text;html=1;align=center;verticalAlign=middle;resizable=0;points=[];labelBackgroundColor=#ffffff;fontSize=12;" parent="csilXPxzsDW-3RmqhbRa-18" vertex="1" connectable="0">
          <mxGeometry x="-0.1997" y="-1" relative="1" as="geometry">
            <mxPoint as="offset" />
          </mxGeometry>
        </mxCell>
        <mxCell id="csilXPxzsDW-3RmqhbRa-20" value="" style="edgeStyle=none;rounded=0;orthogonalLoop=1;jettySize=auto;html=1;fontSize=12;" parent="1" source="csilXPxzsDW-3RmqhbRa-16" target="csilXPxzsDW-3RmqhbRa-19" edge="1">
          <mxGeometry relative="1" as="geometry" />
        </mxCell>
        <mxCell id="Es7d4IAkhjPUTr1Keu-_-24" value="否" style="text;html=1;align=center;verticalAlign=middle;resizable=0;points=[];labelBackgroundColor=#ffffff;fontSize=12;" parent="csilXPxzsDW-3RmqhbRa-20" vertex="1" connectable="0">
          <mxGeometry x="-0.2481" y="-3" relative="1" as="geometry">
            <mxPoint as="offset" />
          </mxGeometry>
        </mxCell>
        <mxCell id="csilXPxzsDW-3RmqhbRa-16" value="支持IE？" style="rhombus;whiteSpace=wrap;html=1;fontSize=12;" parent="1" vertex="1">
          <mxGeometry x="446.1543289325507" y="440" width="80" height="80" as="geometry" />
        </mxCell>
        <mxCell id="Es7d4IAkhjPUTr1Keu-_-19" style="edgeStyle=none;rounded=0;orthogonalLoop=1;jettySize=auto;html=1;" parent="1" source="csilXPxzsDW-3RmqhbRa-19" target="csilXPxzsDW-3RmqhbRa-33" edge="1">
          <mxGeometry relative="1" as="geometry" />
        </mxCell>
        <mxCell id="Es7d4IAkhjPUTr1Keu-_-22" value="是" style="text;html=1;align=center;verticalAlign=middle;resizable=0;points=[];labelBackgroundColor=#ffffff;" parent="Es7d4IAkhjPUTr1Keu-_-19" vertex="1" connectable="0">
          <mxGeometry x="-0.3248" y="3" relative="1" as="geometry">
            <mxPoint as="offset" />
          </mxGeometry>
        </mxCell>
        <mxCell id="Es7d4IAkhjPUTr1Keu-_-20" style="edgeStyle=none;rounded=0;orthogonalLoop=1;jettySize=auto;html=1;" parent="1" source="csilXPxzsDW-3RmqhbRa-19" target="csilXPxzsDW-3RmqhbRa-34" edge="1">
          <mxGeometry relative="1" as="geometry" />
        </mxCell>
        <mxCell id="Es7d4IAkhjPUTr1Keu-_-21" value="否" style="text;html=1;align=center;verticalAlign=middle;resizable=0;points=[];labelBackgroundColor=#ffffff;fontSize=12;" parent="Es7d4IAkhjPUTr1Keu-_-20" vertex="1" connectable="0">
          <mxGeometry x="-0.4307" y="1" relative="1" as="geometry">
            <mxPoint as="offset" />
          </mxGeometry>
        </mxCell>
        <mxCell id="csilXPxzsDW-3RmqhbRa-19" value="新项目？" style="rhombus;whiteSpace=wrap;html=1;fontSize=12;" parent="1" vertex="1">
          <mxGeometry x="605.928507501154" y="358.44" width="80" height="80" as="geometry" />
        </mxCell>
        <mxCell id="Es7d4IAkhjPUTr1Keu-_-15" style="edgeStyle=none;rounded=0;orthogonalLoop=1;jettySize=auto;html=1;" parent="1" source="csilXPxzsDW-3RmqhbRa-17" target="csilXPxzsDW-3RmqhbRa-31" edge="1">
          <mxGeometry relative="1" as="geometry">
            <mxPoint x="610.648507501154" y="555" as="sourcePoint" />
            <mxPoint x="804.72" y="551.1807700149648" as="targetPoint" />
          </mxGeometry>
        </mxCell>
        <mxCell id="Es7d4IAkhjPUTr1Keu-_-16" value="否" style="text;html=1;align=center;verticalAlign=middle;resizable=0;points=[];labelBackgroundColor=#ffffff;" parent="Es7d4IAkhjPUTr1Keu-_-15" vertex="1" connectable="0">
          <mxGeometry x="0.3305" y="-2" relative="1" as="geometry">
            <mxPoint as="offset" />
          </mxGeometry>
        </mxCell>
        <mxCell id="Es7d4IAkhjPUTr1Keu-_-17" style="edgeStyle=none;rounded=0;orthogonalLoop=1;jettySize=auto;html=1;exitX=1;exitY=1;exitDx=0;exitDy=0;" parent="1" source="csilXPxzsDW-3RmqhbRa-17" target="csilXPxzsDW-3RmqhbRa-32" edge="1">
          <mxGeometry relative="1" as="geometry" />
        </mxCell>
        <mxCell id="Es7d4IAkhjPUTr1Keu-_-18" value="是" style="text;html=1;align=center;verticalAlign=middle;resizable=0;points=[];labelBackgroundColor=#ffffff;" parent="Es7d4IAkhjPUTr1Keu-_-17" vertex="1" connectable="0">
          <mxGeometry x="-0.1415" y="-1" relative="1" as="geometry">
            <mxPoint y="-1" as="offset" />
          </mxGeometry>
        </mxCell>
        <mxCell id="csilXPxzsDW-3RmqhbRa-17" value="用户体验？" style="rhombus;whiteSpace=wrap;html=1;fontSize=12;" parent="1" vertex="1">
          <mxGeometry x="605.928507501154" y="535" width="80" height="80" as="geometry" />
        </mxCell>
        <mxCell id="Es7d4IAkhjPUTr1Keu-_-6" value="" style="edgeStyle=orthogonalEdgeStyle;rounded=0;orthogonalLoop=1;jettySize=auto;html=1;" parent="1" source="csilXPxzsDW-3RmqhbRa-28" target="Es7d4IAkhjPUTr1Keu-_-5" edge="1">
          <mxGeometry relative="1" as="geometry" />
        </mxCell>
        <mxCell id="csilXPxzsDW-3RmqhbRa-28" value="应用微服务化" style="rounded=1;whiteSpace=wrap;html=1;fillColor=#dae8fc;strokeColor=#6c8ebf;" parent="1" vertex="1">
          <mxGeometry x="860" y="136" width="120" height="60" as="geometry" />
        </mxCell>
        <mxCell id="Es7d4IAkhjPUTr1Keu-_-5" value="qiankun2" style="rounded=1;whiteSpace=wrap;html=1;fillColor=#fff2cc;strokeColor=#d6b656;" parent="1" vertex="1">
          <mxGeometry x="1060" y="136" width="120" height="60" as="geometry" />
        </mxCell>
        <mxCell id="Es7d4IAkhjPUTr1Keu-_-8" value="" style="edgeStyle=orthogonalEdgeStyle;rounded=0;orthogonalLoop=1;jettySize=auto;html=1;" parent="1" source="csilXPxzsDW-3RmqhbRa-29" target="Es7d4IAkhjPUTr1Keu-_-7" edge="1">
          <mxGeometry relative="1" as="geometry" />
        </mxCell>
        <mxCell id="csilXPxzsDW-3RmqhbRa-29" value="基于构建系统的微件化" style="rounded=1;whiteSpace=wrap;html=1;fillColor=#dae8fc;strokeColor=#6c8ebf;" parent="1" vertex="1">
          <mxGeometry x="860" y="30" width="120" height="60" as="geometry" />
        </mxCell>
        <mxCell id="Es7d4IAkhjPUTr1Keu-_-7" value="Module Federation" style="rounded=1;whiteSpace=wrap;html=1;fillColor=#fff2cc;strokeColor=#d6b656;" parent="1" vertex="1">
          <mxGeometry x="1060" y="30" width="120" height="60" as="geometry" />
        </mxCell>
        <mxCell id="Es7d4IAkhjPUTr1Keu-_-30" value="" style="edgeStyle=none;rounded=0;orthogonalLoop=1;jettySize=auto;html=1;fontSize=12;" parent="1" source="csilXPxzsDW-3RmqhbRa-30" target="Es7d4IAkhjPUTr1Keu-_-29" edge="1">
          <mxGeometry relative="1" as="geometry" />
        </mxCell>
        <mxCell id="csilXPxzsDW-3RmqhbRa-30" value="基于软件工程的微应用化" style="rounded=1;whiteSpace=wrap;html=1;fillColor=#dae8fc;strokeColor=#6c8ebf;" parent="1" vertex="1">
          <mxGeometry x="860" y="242" width="120" height="60" as="geometry" />
        </mxCell>
        <mxCell id="csilXPxzsDW-3RmqhbRa-31" value="HTTP路由重定向" style="rounded=1;whiteSpace=wrap;html=1;fillColor=#dae8fc;strokeColor=#6c8ebf;" parent="1" vertex="1">
          <mxGeometry x="860" y="559" width="120" height="60" as="geometry" />
        </mxCell>
        <mxCell id="csilXPxzsDW-3RmqhbRa-32" value="iframe" style="rounded=1;whiteSpace=wrap;html=1;fillColor=#dae8fc;strokeColor=#6c8ebf;" parent="1" vertex="1">
          <mxGeometry x="860" y="665" width="120" height="60" as="geometry" />
        </mxCell>
        <mxCell id="Es7d4IAkhjPUTr1Keu-_-4" value="" style="edgeStyle=orthogonalEdgeStyle;rounded=0;orthogonalLoop=1;jettySize=auto;html=1;" parent="1" source="csilXPxzsDW-3RmqhbRa-33" target="Es7d4IAkhjPUTr1Keu-_-3" edge="1">
          <mxGeometry relative="1" as="geometry" />
        </mxCell>
        <mxCell id="csilXPxzsDW-3RmqhbRa-33" value="组件 WebComponent 化" style="rounded=1;whiteSpace=wrap;html=1;fillColor=#dae8fc;strokeColor=#6c8ebf;" parent="1" vertex="1">
          <mxGeometry x="860" y="453" width="120" height="60" as="geometry" />
        </mxCell>
        <mxCell id="Es7d4IAkhjPUTr1Keu-_-3" value="WebComponent" style="rounded=1;whiteSpace=wrap;html=1;fillColor=#fff2cc;strokeColor=#d6b656;" parent="1" vertex="1">
          <mxGeometry x="1060" y="453" width="120" height="60" as="geometry" />
        </mxCell>
        <mxCell id="Es7d4IAkhjPUTr1Keu-_-2" value="" style="edgeStyle=orthogonalEdgeStyle;rounded=0;orthogonalLoop=1;jettySize=auto;html=1;" parent="1" source="csilXPxzsDW-3RmqhbRa-34" target="Es7d4IAkhjPUTr1Keu-_-1" edge="1">
          <mxGeometry relative="1" as="geometry" />
        </mxCell>
        <mxCell id="csilXPxzsDW-3RmqhbRa-34" value="WebComponent 集成应用" style="rounded=1;whiteSpace=wrap;html=1;fillColor=#dae8fc;strokeColor=#6c8ebf;" parent="1" vertex="1">
          <mxGeometry x="860" y="347" width="120" height="60" as="geometry" />
        </mxCell>
        <mxCell id="Es7d4IAkhjPUTr1Keu-_-1" value="micro-app" style="rounded=1;whiteSpace=wrap;html=1;fillColor=#fff2cc;strokeColor=#d6b656;" parent="1" vertex="1">
          <mxGeometry x="1060" y="347" width="120" height="60" as="geometry" />
        </mxCell>
        <mxCell id="Es7d4IAkhjPUTr1Keu-_-29" value="git submodule、npm包等方式" style="rounded=1;whiteSpace=wrap;html=1;fillColor=#fff2cc;strokeColor=#d6b656;" parent="1" vertex="1">
          <mxGeometry x="1060" y="240" width="120" height="60" as="geometry" />
        </mxCell>
        <mxCell id="Es7d4IAkhjPUTr1Keu-_-31" value="&lt;h1&gt;框架限制&lt;/h1&gt;&lt;p&gt;&lt;span style=&quot;color: rgb(36 , 41 , 47) ; font-family: , &amp;#34;blinkmacsystemfont&amp;#34; , &amp;#34;segoe ui&amp;#34; , &amp;#34;helvetica&amp;#34; , &amp;#34;arial&amp;#34; , sans-serif , &amp;#34;apple color emoji&amp;#34; , &amp;#34;segoe ui emoji&amp;#34; ; font-size: 16px ; background-color: rgb(255 , 255 , 255)&quot;&gt;在后台微服务系统里，人们使用其它语言的库来开发新的服务，如用于人工智能的 Python。但是在前端，几乎不存在这种可能性。所以当我们的前端框架只有一个时，我们在采用微前端的技术时，可选范围就更大了。而遗憾的是，多数组织需要兼容遗留系统。&lt;/span&gt;&lt;br&gt;&lt;/p&gt;" style="text;html=1;strokeColor=none;fillColor=none;spacing=5;spacingTop=-20;whiteSpace=wrap;overflow=hidden;rounded=0;fontSize=12;" parent="1" vertex="1">
          <mxGeometry x="120" y="635" width="290" height="195" as="geometry" />
        </mxCell>
        <mxCell id="Es7d4IAkhjPUTr1Keu-_-32" value="&lt;h1&gt;依赖独立&lt;/h1&gt;&lt;p&gt;&lt;span style=&quot;color: rgb(36 , 41 , 47) ; font-family: , &amp;#34;blinkmacsystemfont&amp;#34; , &amp;#34;segoe ui&amp;#34; , &amp;#34;helvetica&amp;#34; , &amp;#34;arial&amp;#34; , sans-serif , &amp;#34;apple color emoji&amp;#34; , &amp;#34;segoe ui emoji&amp;#34; ; font-size: 16px ; background-color: rgb(255 , 255 , 255)&quot;&gt;各个微前端应用的依赖是要统一管理，还是要在各个应该中自己管理。统一管理可以解决重复加载依赖的问题，独立管理会带来额外的流量开销和等待时间。&lt;/span&gt;&lt;br&gt;&lt;/p&gt;" style="text;html=1;strokeColor=none;fillColor=none;spacing=5;spacingTop=-20;whiteSpace=wrap;overflow=hidden;rounded=0;fontSize=12;" parent="1" vertex="1">
          <mxGeometry x="120" y="850" width="290" height="195" as="geometry" />
        </mxCell>
      </root>
    </mxGraphModel>
  </diagram>
  <diagram id="3igxvnHRWQPk-mkpeAkQ" name="MPA">
    <mxGraphModel dx="1086" dy="806" grid="1" gridSize="10" guides="1" tooltips="1" connect="1" arrows="1" fold="1" page="1" pageScale="1" pageWidth="827" pageHeight="1169" math="0" shadow="0">
      <root>
        <mxCell id="cjS9HOftgznB5zOTqm3A-0" />
        <mxCell id="cjS9HOftgznB5zOTqm3A-1" parent="cjS9HOftgznB5zOTqm3A-0" />
        <mxCell id="Zk78repF7XS7MxQylPuB-8" value="" style="edgeStyle=orthogonalEdgeStyle;rounded=0;orthogonalLoop=1;jettySize=auto;html=1;" parent="cjS9HOftgznB5zOTqm3A-1" source="Zk78repF7XS7MxQylPuB-0" target="Zk78repF7XS7MxQylPuB-4" edge="1">
          <mxGeometry relative="1" as="geometry">
            <mxPoint x="490" y="470" as="targetPoint" />
          </mxGeometry>
        </mxCell>
        <mxCell id="Zk78repF7XS7MxQylPuB-0" value="" style="strokeWidth=1;shadow=0;dashed=0;align=center;html=1;shape=mxgraph.mockup.containers.browserWindow;rSize=0;strokeColor=#666666;strokeColor2=#008cff;strokeColor3=#c4c4c4;mainText=,;recursiveResize=0;" parent="cjS9HOftgznB5zOTqm3A-1" vertex="1">
          <mxGeometry x="40" y="330" width="370" height="280" as="geometry" />
        </mxCell>
        <mxCell id="Zk78repF7XS7MxQylPuB-1" value="Google" style="strokeWidth=1;shadow=0;dashed=0;align=center;html=1;shape=mxgraph.mockup.containers.anchor;fontSize=17;fontColor=#666666;align=left;" parent="Zk78repF7XS7MxQylPuB-0" vertex="1">
          <mxGeometry x="60" y="12" width="110" height="26" as="geometry" />
        </mxCell>
        <mxCell id="Zk78repF7XS7MxQylPuB-2" value="https://www.google.com" style="strokeWidth=1;shadow=0;dashed=0;align=center;html=1;shape=mxgraph.mockup.containers.anchor;rSize=0;fontSize=17;fontColor=#666666;align=left;" parent="Zk78repF7XS7MxQylPuB-0" vertex="1">
          <mxGeometry x="130" y="60" width="250" height="26" as="geometry" />
        </mxCell>
        <mxCell id="Zk78repF7XS7MxQylPuB-12" value="" style="edgeStyle=orthogonalEdgeStyle;rounded=0;orthogonalLoop=1;jettySize=auto;html=1;" parent="cjS9HOftgznB5zOTqm3A-1" source="Zk78repF7XS7MxQylPuB-4" target="Zk78repF7XS7MxQylPuB-10" edge="1">
          <mxGeometry relative="1" as="geometry" />
        </mxCell>
        <mxCell id="Zk78repF7XS7MxQylPuB-19" value="/user" style="text;html=1;align=center;verticalAlign=middle;resizable=0;points=[];labelBackgroundColor=#ffffff;" parent="Zk78repF7XS7MxQylPuB-12" vertex="1" connectable="0">
          <mxGeometry x="-0.6696" relative="1" as="geometry">
            <mxPoint as="offset" />
          </mxGeometry>
        </mxCell>
        <mxCell id="Zk78repF7XS7MxQylPuB-14" value="" style="edgeStyle=orthogonalEdgeStyle;rounded=0;orthogonalLoop=1;jettySize=auto;html=1;entryX=0;entryY=0.5;entryDx=0;entryDy=0;exitX=0;exitY=0.5;exitDx=0;exitDy=0;" parent="cjS9HOftgznB5zOTqm3A-1" source="Zk78repF7XS7MxQylPuB-4" target="Zk78repF7XS7MxQylPuB-9" edge="1">
          <mxGeometry relative="1" as="geometry">
            <mxPoint x="590" y="350" as="targetPoint" />
          </mxGeometry>
        </mxCell>
        <mxCell id="Zk78repF7XS7MxQylPuB-18" value="/home" style="text;html=1;align=center;verticalAlign=middle;resizable=0;points=[];labelBackgroundColor=#ffffff;" parent="Zk78repF7XS7MxQylPuB-14" vertex="1" connectable="0">
          <mxGeometry x="-0.3312" y="1" relative="1" as="geometry">
            <mxPoint as="offset" />
          </mxGeometry>
        </mxCell>
        <mxCell id="Zk78repF7XS7MxQylPuB-15" style="edgeStyle=orthogonalEdgeStyle;rounded=0;orthogonalLoop=1;jettySize=auto;html=1;entryX=0;entryY=0.5;entryDx=0;entryDy=0;exitX=1;exitY=0.5;exitDx=0;exitDy=0;" parent="cjS9HOftgznB5zOTqm3A-1" source="Zk78repF7XS7MxQylPuB-4" target="Zk78repF7XS7MxQylPuB-11" edge="1">
          <mxGeometry relative="1" as="geometry" />
        </mxCell>
        <mxCell id="Zk78repF7XS7MxQylPuB-20" value="...." style="text;html=1;align=center;verticalAlign=middle;resizable=0;points=[];labelBackgroundColor=#ffffff;" parent="Zk78repF7XS7MxQylPuB-15" vertex="1" connectable="0">
          <mxGeometry x="-0.239" y="4" relative="1" as="geometry">
            <mxPoint as="offset" />
          </mxGeometry>
        </mxCell>
        <mxCell id="Zk78repF7XS7MxQylPuB-4" value="反向代理" style="shape=hexagon;perimeter=hexagonPerimeter2;whiteSpace=wrap;html=1;rotation=0;direction=south;" parent="cjS9HOftgznB5zOTqm3A-1" vertex="1">
          <mxGeometry x="550" y="420" width="80" height="100" as="geometry" />
        </mxCell>
        <mxCell id="Zk78repF7XS7MxQylPuB-9" value="APP 1 （jQuery）" style="rounded=0;whiteSpace=wrap;html=1;" parent="cjS9HOftgznB5zOTqm3A-1" vertex="1">
          <mxGeometry x="860" y="340" width="120" height="60" as="geometry" />
        </mxCell>
        <mxCell id="Zk78repF7XS7MxQylPuB-10" value="APP 2（Vue）" style="rounded=0;whiteSpace=wrap;html=1;" parent="cjS9HOftgznB5zOTqm3A-1" vertex="1">
          <mxGeometry x="860" y="440" width="120" height="60" as="geometry" />
        </mxCell>
        <mxCell id="Zk78repF7XS7MxQylPuB-11" value="APP * （...）" style="rounded=0;whiteSpace=wrap;html=1;" parent="cjS9HOftgznB5zOTqm3A-1" vertex="1">
          <mxGeometry x="860" y="538" width="120" height="60" as="geometry" />
        </mxCell>
      </root>
    </mxGraphModel>
  </diagram>
</mxfile>
